<?xml version="1.0" encoding="utf-8"?>
<!-- Generator: Adobe Illustrator 22.0.1, SVG Export Plug-In . SVG Version: 6.00 Build 0)  -->
<svg version="1.1" id="Calque_1" xmlns="http://www.w3.org/2000/svg" xmlns:xlink="http://www.w3.org/1999/xlink" x="0px" y="0px"
	 viewBox="0 0 169.6 45.9" style="enable-background:new 0 0 169.6 45.9;" xml:space="preserve">
<style type="text/css">
	.st0{fill:#FFFFFF;}
	.st1{fill:#1A171B;}
	.st2{fill:#004493;}
	.st3{fill:#184393;}
	.st4{fill:#E1001A;}
	.st5{fill:#9B9C9E;}
</style>
<title>MENESR_H</title>
<g>
	<rect x="0.9" y="0.9" class="st0" width="64.8" height="44.2"/>
	<path class="st1" d="M66,45.4H0.7V0.7H66V45.4z M1.2,44.9h64.3V1.2H1.2V44.9z"/>
</g>
<g>
	<g>
		<polygon class="st0" points="55.6,10.4 55.6,25.4 11.1,25.4 11.1,10.4 		"/>
		<path class="st2" d="M24.4,19.7c-0.4,0.1-0.8,0.1-1.2,0.3c0.9,0,1.8,0.1,2.6,0.4c0.3,0.1,0.6,0.2,0.8,0.4c0.1,0.1,0.2,0.2,0.3,0.3
			c0.2,0.1,0.4,0.1,0.6,0h0.2c0.5-0.1,1.1-0.3,1.4-0.6c0,0,0,0,0.1,0c-0.1,0.3-0.1,0.6-0.3,0.8c0,0,0,0.1,0,0.1H29c0,0-0.1,0-0.1,0
			c0,0.1,0.1,0,0.1,0.1c-0.2,0-0.3,0.1-0.4,0.2c0,0,0.1,0,0.1,0c-0.1,0.1-0.2,0-0.2,0.1c0,0,0,0,0.1,0c0,0-0.1,0-0.1,0v0.1
			c-0.1,0-0.1,0.1-0.2,0.1c0.1,0.1,0.2,0,0.4,0c-0.4,0.1-0.7,0.3-1.1,0.4c-0.1,0,0,0.1-0.1,0.1c0.1,0.1,0.2,0,0.3,0
			c-0.5,0.3-1,0.5-1.5,0.8c0,0-0.1,0.1-0.1,0.1h-0.1c-0.1,0,0,0.1-0.1,0.2c0.2,0.1,0.4-0.1,0.5,0c0,0-0.1,0-0.1,0c0,0,0,0.1-0.1,0.1
			h-0.1c-0.1,0.1-0.1,0.1-0.1,0.2c-0.1,0-0.1,0-0.2,0.1c0.7-0.1,1.5,0,2.2-0.4c0.5-0.3,1.1-0.7,1.5-1.1c0,0,0,0,0,0.1
			c-0.1,0.3-0.3,0.6-0.6,0.8c-0.2,0.1-0.3,0.3-0.5,0.3c-0.1,0.1-0.2,0.1-0.3,0.2c-1.3,0.4-2.8,0.2-3.8,1.1c0,0,0,0-0.1,0
			c-0.1,0.1-0.2,0.1-0.2,0.2c0,0.1,0.1,0,0.1,0c0.2-0.1,0.4-0.2,0.6-0.3c-0.3,0.1-0.5,0.4-0.8,0.4h-1.7c0.3-0.2,0.7-0.4,1-0.6
			c-0.1-0.1-0.2-0.1-0.3-0.1c-0.2,0-0.4-0.1-0.5,0c-0.5,0.2-1.2,0.2-1.5,0.7H11.1l0-15.1h20.2c-0.4,0.2-0.8,0.3-1.1,0.7
			c-0.3,0.3-0.5,0.7-0.6,1.1c-0.4,0.3-0.7,0.7-1,1.1c-0.3,0.6-0.7,1.1-0.7,1.7c0.1,0.5,0.2,1.1,0.3,1.6c0,0.2,0.1,0.4,0.1,0.6
			c0.1,0.2,0,0.4,0.1,0.6c0.1,0.1,0,0.2,0.2,0.3v0.1c0,0,0,0.1,0.1,0.1v0.1c0.3,0.3,0.6,0.6,0.8,1c0.1,0.2-0.3,0.1-0.5,0
			c-0.3-0.2-0.5-0.4-0.8-0.7c0,0,0,0,0,0.1c0.1,0.2,0.6,0.5,0.4,0.7c-0.1,0.1-0.3-0.1-0.4,0c0,0.1,0,0.1,0,0.2
			c-0.2-0.1-0.4-0.1-0.6-0.1c-0.1,0-0.2-0.3-0.3-0.3c-0.4-0.1-0.9-0.2-1.3-0.2c-0.6-0.1-1.2-0.2-1.8-0.1c-0.5,0-1,0.4-1.3,0.9v0.1
			c0.2,0,0.3-0.2,0.5-0.2c0.3-0.1,0.6-0.2,1-0.3c0.5-0.1,1-0.2,1.5-0.2c0.1,0,0.2,0,0.3,0C25.5,19.3,24.9,19.5,24.4,19.7"/>
		<path class="st0" d="M22.5,21.3c-0.1,0-0.2,0.1-0.2,0.2c0.1,0.1,0.3,0,0.5,0c-0.2,0.1-0.4,0-0.6,0.2c0.1,0.1,0.3,0,0.4,0
			c0,0.1,0.1,0.1,0.1,0.1c-0.2,0.1-0.3,0.2-0.3,0.3c-0.1,0.2-0.2,0.2-0.3,0.4v0.1c-0.3,0.3-0.7,0.5-1,0.9c0,0,0,0,0,0.1
			c-0.1,0.1-0.2,0.1-0.2,0.2c0,0,0,0.1,0,0.1c0.4-0.1,0.7-0.4,1.1-0.6c0.3-0.1,0.5-0.2,0.7-0.3c0.2,0,0.4-0.1,0.5-0.1
			c0,0,0,0.1,0,0.1h0.3c0,0.1-0.2,0-0.1,0.1c0.1,0.1,0.3,0.1,0.4,0c0.1-0.1,0.2-0.1,0.3-0.1c0,0,0-0.1,0-0.1c0.1,0,0.2,0,0.3,0
			c0.8-0.2,1.6-0.3,2.3-0.7c-0.9-0.7-2-0.9-3.1-1.2c0.1,0,0.2,0.1,0.3,0c-0.2-0.1-0.4-0.1-0.5-0.2c0,0,0.1,0,0.1,0
			c-0.3-0.1-0.5-0.1-0.8-0.2c0.2,0,0.3-0.2,0.3-0.3c0,0-0.1,0-0.1,0c-0.4,0.2-0.7,0.6-0.8,1c0.2,0.1,0.5,0,0.7,0.1
			C22.8,21.2,22.6,21.2,22.5,21.3"/>
		<path class="st0" d="M21.1,20c-0.3,0.4-0.7,0.7-1.2,1c-0.3,0.6-0.6,1.2-1.1,1.7c0,0,0,0.1,0,0.1c0.8-0.9,1.6-1.7,2.6-2.3
			c0.1,0-0.1,0.1,0,0.1c0.4-0.1,0.6-0.5,0.8-0.9c0.3-0.4,0.7-0.6,1.1-1c0,0,0,0.1,0,0.1c0,0,0.1,0,0.1,0c0.1-0.1,0.3-0.1,0.4-0.2
			c-0.3-0.1-0.6-0.1-0.9,0C22.2,18.8,21.6,19.3,21.1,20"/>
		<path class="st0" d="M21.6,20.6c0-0.1,0.1-0.1,0.1-0.1c0,0,0-0.1,0-0.1c-0.1,0-0.2,0.2-0.3,0.3c0,0,0,0,0.1,0
			C21.5,20.7,21.5,20.7,21.6,20.6"/>
		<path class="st0" d="M24.3,23.2c-0.1,0.1-0.4,0.1-0.4,0.2c0,0.1,0.1,0,0.2,0c0.2-0.1,0.5,0,0.7-0.2c-0.1-0.1-0.2,0-0.2-0.1
			C24.5,23.1,24.4,23.2,24.3,23.2"/>
		<path class="st3" d="M28,25c0.2,0,0.4-0.2,0.6-0.2v0.1c0.5-0.2,0.9-0.6,1.4-0.8c0,0,0.1,0.1,0.2,0c0.3-0.3,0.6-0.6,1.1-0.5
			c0,0,0,0.1,0,0.1c0,0,0.1,0,0.1,0c-0.1,0.1-0.3,0.2-0.4,0.3c0,0,0,0.1,0,0.1c0.2-0.1,0.3-0.2,0.4-0.3c0,0,0,0.1-0.1,0.1
			c-0.6,0.5-1.6,1.6-1.6,1.6h-4.6c0.7-0.1,1.4-0.3,2-0.4C27.4,25,27.7,25.1,28,25"/>
		<path class="st4" d="M41.4,23.3c0.1-0.2,0.2-0.5,0-0.8c-0.2-0.3,0.2-0.4,0.3-0.6c0.1-0.2-0.1-0.3-0.1-0.4c0-0.1-0.2,0-0.2-0.1
			c0.2-0.1,0.6-0.3,0.4-0.6c-0.1-0.2-0.3-0.4-0.1-0.6c0.2-0.1,0.6-0.1,0.7-0.3c0.2-0.4-0.2-0.7-0.4-1.1c-0.1-0.2-0.2-0.3-0.4-0.5
			c-0.1-0.2-0.3-0.4-0.4-0.7c-0.1-0.3,0-0.5,0-0.8c0-0.5-0.1-1-0.2-1.5c-0.1-0.2-0.1-0.5-0.2-0.8c0-0.1-0.1-0.3-0.2-0.4
			c0-0.1,0-0.2,0-0.2c0.1-0.1,0.3-0.2,0.4-0.3c0.1-0.2,0-0.4-0.1-0.5c-0.2-0.1-0.2,0.2-0.4,0.3h-0.1c0-0.1,0-0.1,0.1-0.2
			c0,0,0-0.1,0-0.1c-0.1,0-0.3,0-0.3-0.1c-0.3-0.5-0.8-0.7-1.3-0.9c0.1,0,0.3,0.1,0.4,0.1c0.2,0,0.5,0,0.7-0.1
			c0.2-0.1,0.2-0.3,0.3-0.5c0.1-0.1,0-0.3-0.1-0.4c-0.2-0.3-0.7-0.5-0.7-0.5h16l0,15.1H36.5c0.2-0.7,0.6-1.3,1.2-1.8
			c0.1-0.1,0.3-0.1,0.5-0.1c0.6,0,1.2,0.2,1.7,0.2c0.1,0,0.1,0,0.2,0.1c0.2,0,0.4,0,0.6,0C41,23.7,41.3,23.6,41.4,23.3"/>
		<path class="st5" d="M40.1,16.6c-0.2-0.1-0.4,0-0.6,0c-0.3,0.1-0.5,0.1-0.7,0.2c0.2-0.1,0.4-0.3,0.6-0.3c0.2,0,0.3-0.1,0.5-0.1
			c0.2,0,0.4-0.1,0.6,0c0.2,0.1,0.4,0.1,0.5,0.2c0.1,0.2-0.1,0.4-0.3,0.5c0,0.1,0.1,0.1,0.1,0.2c0,0.1-0.1,0.1-0.2,0.1
			c-0.1,0-0.1,0.1-0.2,0.2c0.1,0,0,0.1,0.1,0.1c-0.1,0.2,0.1,0.5-0.1,0.6c-0.2,0.1-0.5,0.1-0.8,0c0.1,0,0.3,0,0.4-0.1v-0.1
			c0,0,0,0-0.1,0c0,0-0.1,0-0.1,0c0-0.1-0.1-0.1-0.1-0.1c-0.2,0-0.4-0.1-0.5-0.2c0.1,0,0.2-0.1,0.3,0c0.1,0,0.1-0.2,0.2-0.2h0.1
			c0.2-0.3,0.6-0.3,0.7-0.6C40.4,16.6,40.2,16.6,40.1,16.6"/>
	</g>
	<g>
		<path class="st1" d="M13.4,36c-0.2,0-0.3,0-0.3-0.1c-0.2-0.1-0.3-0.4-0.4-0.5c-0.2-0.3-0.3-0.5-0.5-0.8c0,0,0,0-0.1,0
			c0,0-0.1,0-0.1,0v0.2c0,0.1,0,0.2,0,0.4c0,0.2,0,0.3,0,0.4c0,0.1,0.1,0.2,0.3,0.2V36l-0.1,0c-0.1,0-0.3,0-0.5,0
			c-0.2,0-0.4,0-0.5,0l-0.1,0v-0.1c0.1,0,0.2,0,0.2-0.1c0-0.1,0.1-0.1,0.1-0.2c0-0.1,0-0.2,0-0.7v-0.7c0-0.5,0-0.7,0-0.8
			c0-0.1-0.1-0.2-0.3-0.2V33c0.1,0,0.2,0,0.3,0c0.2,0,0.3,0,0.6,0c0.2,0,0.4,0,0.5,0c0.3,0,0.5,0,0.6,0.1c0.2,0.1,0.3,0.3,0.3,0.6
			c0,0.4-0.2,0.7-0.7,0.8c0.2,0.2,0.3,0.4,0.5,0.7c0.1,0.2,0.3,0.4,0.4,0.5c0.1,0.1,0.1,0.1,0.2,0.1V36C13.6,36,13.5,36,13.4,36
			 M12.2,33.2c-0.1,0-0.2,0-0.3,0c0,0.3,0,0.7,0,1.1c0,0,0.1,0,0.2,0c0.4,0,0.6-0.2,0.6-0.6C12.8,33.5,12.5,33.2,12.2,33.2"/>
		<path class="st1" d="M14.8,33.3l-0.2-0.1l0.4-0.5l0.4,0.1L14.8,33.3z M15.6,35.9c0,0.1-0.1,0.1-0.3,0.1c-0.1,0-0.2,0-0.4,0
			c-0.2,0-0.4,0-0.5,0c-0.2,0-0.4,0-0.5,0v-0.1c0.2,0,0.2-0.1,0.3-0.3c0-0.1,0-0.2,0-0.4v-1c0-0.2,0-0.3,0-0.4
			c0-0.1-0.1-0.1-0.2-0.1v-0.1h1.7c0,0.1,0,0.2,0,0.3c0,0.1,0,0.2,0,0.3h-0.1c0-0.3-0.1-0.4-0.6-0.4c-0.1,0-0.2,0-0.3,0
			c0,0.1,0,0.2,0,0.4v0.4c0.1,0,0.1,0,0.2,0c0.4,0,0.5-0.1,0.5-0.3h0.1c0,0.1,0,0.2,0,0.4c0,0.2,0,0.3,0,0.4h-0.1
			c0-0.2-0.1-0.3-0.5-0.3c-0.1,0-0.1,0-0.2,0c0,0.2,0,0.5,0,0.7c0,0.2,0,0.2,0.1,0.2c0.1,0,0.1,0,0.3,0c0.4,0,0.5-0.1,0.6-0.4l0.1,0
			C15.7,35.6,15.7,35.8,15.6,35.9"/>
		<path class="st1" d="M17.2,34.9c0,0-0.1,0-0.1,0L17,34.7c0.3,0,0.5-0.2,0.5-0.5c0-0.3-0.2-0.5-0.5-0.5c0,0-0.1,0-0.1,0
			c0,0.2,0,0.5,0,0.7V35c0,0.5,0,0.6,0,0.7c0,0.1,0.1,0.1,0.2,0.2V36l-0.1,0c-0.1,0-0.2,0-0.4,0c-0.2,0-0.3,0-0.4,0l-0.1,0v-0.1
			c0.2,0,0.2-0.1,0.3-0.3c0-0.1,0-0.2,0-0.5v-0.9c0-0.2,0-0.3,0-0.4c0-0.1-0.1-0.1-0.2-0.1v-0.1c0,0,0,0,0.2,0c0.1,0,0.1,0,0.3,0
			c0.2,0,0.4,0,0.6,0c0.5,0,0.8,0.3,0.8,0.7C18,34.6,17.6,34.9,17.2,34.9"/>
		<path class="st1" d="M20.5,33.7c0,0.1-0.1,0.1-0.1,0.3c0,0.2,0,0.3,0,0.5c0,0.1,0,0.3,0,0.6c0,0.3,0,0.4-0.1,0.6
			c-0.2,0.2-0.4,0.4-0.8,0.4c-0.2,0-0.4,0-0.6-0.2c-0.3-0.2-0.4-0.4-0.4-0.8c0-0.4,0-0.6,0-0.7c0-0.2,0-0.4,0-0.6
			c0-0.1-0.1-0.2-0.2-0.2v-0.1h0.1c0.1,0,0.2,0,0.4,0c0.2,0,0.3,0,0.4,0h0.1v0.1c-0.1,0-0.2,0-0.2,0.1c0,0.1,0,0.1,0,0.3
			c0,0.2,0,0.5,0,0.7c0,0.6,0,0.8,0.1,0.9c0.1,0.1,0.2,0.2,0.4,0.2c0.2,0,0.5-0.1,0.6-0.4c0-0.2,0.1-0.3,0.1-0.7v-0.4
			c0-0.4,0-0.6-0.1-0.6c0-0.1-0.1-0.1-0.2-0.1v-0.1c0.1,0,0.2,0,0.4,0c0.2,0,0.2,0,0.4,0v0.1C20.6,33.6,20.5,33.7,20.5,33.7"/>
		<path class="st1" d="M22.7,35.8C22.6,35.9,22.4,36,22,36c-0.2,0-0.4,0-0.6,0c-0.1,0-0.2,0-0.3,0l0,0v-0.1c0.2,0,0.2-0.1,0.3-0.3
			c0-0.1,0-0.2,0-0.5v-0.7c0-0.3,0-0.5,0-0.6c0-0.1-0.1-0.1-0.2-0.1v-0.1c0.2,0,0.3,0,0.5,0c0.2,0,0.5,0,0.7,0
			c0.3,0,0.6,0.2,0.6,0.5c0,0.3-0.2,0.5-0.5,0.6c0.4,0.1,0.6,0.3,0.6,0.7C23,35.5,22.9,35.7,22.7,35.8 M21.9,33.7
			c-0.1,0-0.1,0-0.2,0c0,0.2,0,0.6,0,0.8c0,0,0.1,0,0.2,0c0.4,0,0.6-0.2,0.6-0.4C22.5,33.9,22.3,33.7,21.9,33.7 M22,34.7
			c-0.1,0-0.1,0-0.2,0c0,0.1,0,0.1,0,0.3v0.2c0,0.2,0,0.3,0,0.4c0,0.1,0.1,0.1,0.3,0.1c0.3,0,0.5-0.2,0.5-0.5
			C22.5,34.9,22.3,34.7,22,34.7"/>
		<path class="st1" d="M25,35.9c0,0-0.1,0.1-0.3,0.1c-0.1,0-0.2,0-0.3,0c-0.2,0-0.4,0-0.7,0c-0.2,0-0.3,0-0.4,0v-0.1
			c0.1,0,0.1,0,0.2-0.1c0.1-0.1,0.1-0.2,0.1-0.4v-0.5v-0.4c0-0.5,0-0.6,0-0.7c0-0.1-0.1-0.1-0.2-0.1v-0.1l0.1,0c0.1,0,0.2,0,0.4,0
			c0.2,0,0.3,0,0.4,0l0.1,0v0.1c-0.2,0-0.3,0.1-0.3,0.3c0,0.1,0,0.1,0,0.5V35c0,0.5,0,0.6,0,0.6c0,0,0.1,0.1,0.3,0.1
			c0.2,0,0.3,0,0.4-0.1c0.1-0.1,0.2-0.2,0.2-0.3l0.1,0C25.2,35.6,25.1,35.8,25,35.9"/>
		<path class="st1" d="M26.3,36c-0.1,0-0.2,0-0.4,0c-0.2,0-0.3,0-0.4,0l-0.1,0v-0.1c0.2,0,0.2-0.1,0.3-0.3c0-0.1,0-0.2,0-0.5v-0.6
			c0-0.1,0-0.2,0-0.3c0-0.2,0-0.3,0-0.4c0-0.1-0.1-0.1-0.2-0.1v-0.1l0.1,0c0.1,0,0.2,0,0.4,0c0.2,0,0.3,0,0.4,0l0.1,0v0.1
			c-0.2,0-0.2,0.1-0.3,0.3c0,0.1,0,0.2,0,0.5V35c0,0.5,0,0.6,0,0.7C26.2,35.8,26.3,35.8,26.3,36L26.3,36L26.3,36z"/>
		<path class="st1" d="M29.7,36.6c-0.3,0-0.6-0.1-0.9-0.3c-0.2-0.1-0.4-0.2-0.6-0.4c-0.1,0-0.2,0-0.3,0c-0.7,0-1.2-0.5-1.2-1.2
			c0-0.8,0.5-1.3,1.3-1.3c0.7,0,1.3,0.5,1.3,1.2c0,0.5-0.3,1-0.7,1.2c0.1,0.1,0.3,0.1,0.4,0.2c0.4,0.2,0.6,0.3,0.9,0.3
			c0.2,0,0.3,0,0.4-0.1l0,0.1C30.2,36.6,30,36.6,29.7,36.6 M28,33.7c-0.4,0-0.8,0.4-0.8,0.9c0,0.6,0.4,1.1,0.9,1.1
			c0.5,0,0.8-0.4,0.8-0.9C28.9,34.2,28.5,33.7,28,33.7"/>
		<path class="st1" d="M31.9,33.7c0,0.1-0.1,0.1-0.1,0.3c0,0.2,0,0.3,0,0.5c0,0.1,0,0.3,0,0.6c0,0.3,0,0.4-0.1,0.6
			c-0.2,0.2-0.4,0.4-0.8,0.4c-0.2,0-0.4,0-0.6-0.2c-0.3-0.2-0.4-0.4-0.4-0.8c0-0.4,0-0.6,0-0.7c0-0.2,0-0.4,0-0.6
			c0-0.1-0.1-0.2-0.2-0.2v-0.1h0.1c0.1,0,0.2,0,0.4,0c0.2,0,0.3,0,0.4,0h0.1v0.1c-0.1,0-0.2,0-0.2,0.1c0,0.1,0,0.1,0,0.3
			c0,0.2,0,0.5,0,0.7c0,0.6,0,0.8,0.1,0.9c0.1,0.1,0.2,0.2,0.4,0.2c0.2,0,0.5-0.1,0.6-0.4c0-0.2,0.1-0.3,0.1-0.7v-0.4
			c0-0.4,0-0.6-0.1-0.6c0-0.1-0.1-0.1-0.2-0.1v-0.1c0.1,0,0.2,0,0.4,0c0.2,0,0.2,0,0.4,0v0.1C32,33.6,31.9,33.7,31.9,33.7"/>
		<path class="st1" d="M34.1,35.9c0,0.1-0.1,0.1-0.3,0.1c-0.1,0-0.2,0-0.4,0c-0.2,0-0.4,0-0.5,0c-0.2,0-0.4,0-0.5,0v-0.1
			c0.2,0,0.2-0.1,0.3-0.3c0-0.1,0-0.2,0-0.4v-1c0-0.2,0-0.3,0-0.4c0-0.1-0.1-0.1-0.2-0.1v-0.1h1.7v0.3c0,0.1,0,0.2,0,0.3H34
			c0-0.3-0.1-0.4-0.6-0.4c-0.1,0-0.2,0-0.3,0c0,0.1,0,0.2,0,0.4v0.4c0.1,0,0.1,0,0.2,0c0.4,0,0.5-0.1,0.5-0.3H34c0,0.1,0,0.2,0,0.4
			c0,0.2,0,0.3,0,0.4h-0.1c0-0.2-0.1-0.3-0.5-0.3c-0.1,0-0.1,0-0.2,0c0,0.2,0,0.5,0,0.7c0,0.2,0,0.2,0.1,0.2c0.1,0,0.1,0,0.3,0
			c0.4,0,0.5-0.1,0.6-0.4l0.1,0C34.2,35.6,34.2,35.8,34.1,35.9"/>
		<path class="st1" d="M37.5,33.7c0-0.3-0.2-0.4-0.7-0.4c-0.1,0-0.2,0-0.3,0c0,0.3,0,0.5,0,1c0.1,0,0.2,0,0.2,0
			c0.4,0,0.5-0.1,0.6-0.3h0.2c0,0.1,0,0.2,0,0.4c0,0.2,0,0.3,0,0.5h-0.2c0-0.3-0.1-0.3-0.6-0.3c-0.1,0-0.1,0-0.2,0V35
			c0,0.1,0,0.2,0,0.3c0,0.2,0,0.5,0.3,0.5V36l-0.1,0c-0.1,0-0.3,0-0.5,0c-0.2,0-0.4,0-0.5,0l-0.1,0v-0.1c0.2,0,0.3-0.1,0.3-0.3
			c0-0.1,0-0.2,0-0.7v-1.1c0-0.2,0-0.3-0.1-0.4c0-0.1-0.1-0.2-0.3-0.2V33h2c0,0.1,0,0.2,0,0.4c0,0.2,0,0.2,0,0.3H37.5z"/>
		<path class="st1" d="M40,36c-0.1,0-0.2,0-0.3-0.1c-0.1-0.1-0.2-0.3-0.3-0.4c-0.1-0.2-0.3-0.5-0.4-0.6c0,0,0,0-0.1,0
			c0,0-0.1,0-0.1,0V35v0.3c0,0.2,0,0.3,0,0.4c0,0.1,0.1,0.1,0.2,0.2V36L39,36c-0.1,0-0.2,0-0.4,0c-0.2,0-0.3,0-0.4,0l-0.1,0v-0.1
			c0.1,0,0.1,0,0.2-0.1c0,0,0.1-0.1,0.1-0.2c0-0.1,0-0.2,0-0.5v-0.6c0-0.4,0-0.6,0-0.7c0-0.1-0.1-0.1-0.2-0.2v-0.1
			c0.1,0,0.1,0,0.2,0c0.2,0,0.2,0,0.5,0c0.2,0,0.3,0,0.4,0c0.2,0,0.4,0,0.5,0.1c0.1,0.1,0.2,0.3,0.2,0.5c0,0.3-0.2,0.5-0.5,0.7
			c0.1,0.2,0.2,0.4,0.4,0.6c0.1,0.2,0.2,0.3,0.3,0.4c0,0.1,0.1,0.1,0.2,0.1V36C40.2,36,40.1,36,40,36 M39,33.7c-0.1,0-0.1,0-0.2,0
			v0.9c0,0,0.1,0,0.2,0c0.3,0,0.5-0.2,0.5-0.5C39.5,33.9,39.3,33.7,39,33.7"/>
		<path class="st1" d="M42.6,36c-0.1,0-0.2,0-0.4,0c-0.2,0-0.3,0-0.4,0l-0.1,0v-0.1c0.1,0,0.2-0.1,0.2-0.2c0,0,0-0.1-0.1-0.2
			c0-0.1-0.1-0.2-0.1-0.4H41L41,35.3c-0.1,0.2-0.1,0.3-0.1,0.4c0,0.1,0,0.2,0.2,0.2V36c-0.1,0-0.2,0-0.4,0c-0.2,0-0.2,0-0.4,0v-0.1
			c0.1,0,0.1,0,0.1,0c0.1-0.1,0.1-0.2,0.3-0.5l0.3-0.9c0.1-0.2,0.2-0.6,0.3-0.9h0.2c0,0.1,0.1,0.3,0.2,0.4l0.5,1.3
			c0.1,0.2,0.1,0.4,0.2,0.4C42.5,35.8,42.6,35.8,42.6,36L42.6,36L42.6,36z M41.4,34.2c-0.1,0.2-0.2,0.6-0.3,0.8h0.5L41.4,34.2z"/>
		<path class="st1" d="M45.2,33.7c0,0.1,0,0.1-0.1,0.3c0,0.3,0,0.8,0,1.1v0.6c0,0.1,0,0.2,0,0.3h-0.3c-0.2-0.3-0.7-0.9-0.7-0.9
			c-0.1-0.1-0.5-0.6-0.7-0.9c0,0.1,0,0,0,0.3v0.2c0,0.3,0,0.5,0,0.8c0,0.2,0,0.2,0.1,0.3c0,0.1,0.1,0.1,0.2,0.1V36
			c-0.1,0-0.3,0-0.4,0c-0.1,0-0.3,0-0.4,0v-0.1c0.2,0,0.3-0.2,0.3-0.4c0-0.2,0-0.3,0-0.5v-0.8c0-0.3,0-0.4-0.1-0.5
			c0-0.1-0.1-0.1-0.2-0.1v-0.1c0.1,0,0.2,0,0.3,0c0.1,0,0.2,0,0.3,0c0,0.1,0.1,0.2,0.4,0.5c0.4,0.4,0.7,0.8,1,1.2v-0.8
			c0-0.4,0-0.5,0-0.6c0-0.1-0.1-0.2-0.2-0.2v-0.1c0.1,0,0.2,0,0.4,0c0.2,0,0.2,0,0.4,0v0.1C45.3,33.6,45.3,33.6,45.2,33.7"/>
		<path class="st1" d="M47.8,35.9C47.5,36,47.3,36,47,36l0,0.1c0,0,0.1,0,0.1,0c0.1,0,0.2,0.1,0.2,0.2c0,0.2-0.2,0.3-0.4,0.3
			c-0.1,0-0.1,0-0.2,0l0.1-0.1c0,0,0.1,0,0.1,0c0.1,0,0.2-0.1,0.2-0.1c0-0.1,0-0.1-0.1-0.1c0,0-0.1,0-0.1,0l-0.1,0l0.1-0.3
			c-0.3,0-0.6-0.1-0.8-0.3c-0.2-0.2-0.3-0.5-0.3-0.9c0-0.8,0.5-1.3,1.3-1.3c0.3,0,0.5,0,0.7,0.1c0,0.1,0,0.2,0,0.2
			c0,0.1,0,0.2,0,0.3h-0.1c-0.1-0.3-0.3-0.4-0.6-0.4c-0.5,0-0.8,0.3-0.8,0.9c0,0.7,0.4,1.1,0.9,1.1c0.3,0,0.5-0.2,0.6-0.4l0.1,0
			C47.8,35.5,47.8,35.7,47.8,35.9"/>
		<path class="st1" d="M50.3,36c-0.1,0-0.2,0-0.4,0c-0.2,0-0.3,0-0.4,0l-0.1,0v-0.1c0.1,0,0.2-0.1,0.2-0.2c0,0,0-0.1,0-0.2
			c0-0.1-0.1-0.2-0.1-0.4h-0.7l-0.1,0.2c-0.1,0.2-0.1,0.3-0.1,0.4c0,0.1,0,0.2,0.2,0.2V36c-0.1,0-0.2,0-0.4,0c-0.2,0-0.2,0-0.4,0
			v-0.1c0.1,0,0.1,0,0.1,0c0.1-0.1,0.1-0.2,0.3-0.5l0.3-0.9c0.1-0.2,0.2-0.6,0.3-0.9h0.2c0,0.1,0.1,0.3,0.2,0.4l0.5,1.3
			c0.1,0.2,0.2,0.4,0.2,0.4C50.2,35.8,50.3,35.8,50.3,36L50.3,36L50.3,36z M49.1,34.2c-0.1,0.2-0.2,0.6-0.3,0.8h0.5L49.1,34.2z"/>
		<path class="st1" d="M51.5,36c-0.1,0-0.2,0-0.4,0c-0.2,0-0.3,0-0.4,0l-0.1,0v-0.1c0.2,0,0.2-0.1,0.3-0.3c0-0.1,0-0.2,0-0.5v-0.6
			c0-0.1,0-0.2,0-0.3c0-0.2,0-0.3,0-0.4c0-0.1-0.1-0.1-0.2-0.1v-0.1l0.1,0c0.1,0,0.2,0,0.4,0c0.2,0,0.3,0,0.4,0l0.1,0v0.1
			c-0.2,0-0.2,0.1-0.3,0.3c0,0.1,0,0.2,0,0.5V35c0,0.5,0,0.6,0,0.7C51.4,35.8,51.5,35.8,51.5,36L51.5,36L51.5,36z"/>
		<path class="st1" d="M52.6,36c-0.2,0-0.4,0-0.6-0.1c0-0.1,0-0.4-0.1-0.5l0.1,0c0.1,0.3,0.3,0.4,0.6,0.4c0.3,0,0.4-0.1,0.4-0.3
			c0-0.2-0.1-0.3-0.3-0.4l-0.4-0.2c-0.3-0.2-0.4-0.3-0.4-0.7c0-0.4,0.3-0.7,0.8-0.7c0.2,0,0.4,0,0.6,0.1c0,0.1,0,0.1,0,0.2
			c0,0.1,0,0.2,0,0.3h-0.1c-0.1-0.3-0.2-0.4-0.5-0.4c-0.2,0-0.4,0.1-0.4,0.3c0,0.2,0.1,0.3,0.3,0.4l0.3,0.2c0.3,0.2,0.5,0.4,0.5,0.7
			C53.5,35.7,53.1,36,52.6,36"/>
		<path class="st1" d="M55.6,35.9c0,0.1-0.1,0.1-0.3,0.1c-0.1,0-0.2,0-0.4,0c-0.2,0-0.4,0-0.5,0c-0.2,0-0.3,0-0.5,0v-0.1
			c0.2,0,0.2-0.1,0.2-0.3c0-0.1,0-0.2,0-0.4v-1c0-0.2,0-0.3,0-0.4c0-0.1-0.1-0.1-0.2-0.1v-0.1h1.7c0,0.1,0,0.2,0,0.3
			c0,0.1,0,0.2,0,0.3h-0.1c0-0.3-0.2-0.4-0.6-0.4c-0.1,0-0.2,0-0.3,0c0,0.1,0,0.2,0,0.4v0.4c0.1,0,0.1,0,0.2,0
			c0.4,0,0.5-0.1,0.5-0.3h0.1c0,0.1,0,0.2,0,0.4c0,0.2,0,0.3,0,0.4h-0.1c0-0.2-0.1-0.3-0.5-0.3c-0.1,0-0.1,0-0.2,0
			c0,0.2,0,0.5,0,0.7c0,0.2,0,0.2,0.1,0.2c0.1,0,0.1,0,0.2,0c0.4,0,0.5-0.1,0.6-0.4l0.1,0C55.7,35.6,55.6,35.8,55.6,35.9"/>
		<path class="st1" d="M12.4,29.7c0,0-0.1,0.1-0.2,0.1c-0.2,0-0.3,0-0.5,0c-0.2,0-0.3,0-0.3,0c-0.1,0-0.4,0-0.4,0l0,0l0-0.1
			c0.1,0,0.2,0,0.2-0.1c0.1-0.1,0.1-0.2,0.1-0.4c0-0.2,0.1-0.3,0.1-0.7l0.1-0.3c0.1-0.3,0.1-0.4,0.1-0.5c0-0.2-0.1-0.2-0.2-0.2
			l0-0.1c0,0,0,0,0,0h0.4h0.4c0,0,0,0,0.1,0l0,0.1c-0.1,0-0.2,0-0.2,0.1c-0.1,0.1-0.1,0.3-0.3,1l0,0.2c-0.1,0.3-0.1,0.4-0.1,0.5
			c0,0,0,0.1,0,0.1c0,0.1,0.1,0.2,0.3,0.2c0.4,0,0.6-0.1,0.7-0.4l0.1,0C12.5,29.5,12.4,29.6,12.4,29.7"/>
		<path class="st1" d="M13.4,28c-0.1,0-0.2-0.1-0.2-0.2c0-0.1,0.1-0.2,0.2-0.2c0.1,0,0.2,0.1,0.2,0.2C13.6,27.9,13.5,28,13.4,28
			 M13,29.8c-0.1,0-0.1,0-0.1-0.1c0,0,0-0.1,0-0.2c0-0.2,0.1-0.4,0.1-0.6c0-0.2,0.1-0.3,0.1-0.4c0,0,0-0.1-0.1-0.1c0,0-0.1,0-0.1,0
			l0,0l0-0.1c0.2-0.1,0.4-0.1,0.5-0.1c0.1,0,0.1,0,0.1,0.1c0,0,0,0.2-0.1,0.4L13.3,29c-0.1,0.3-0.1,0.5-0.1,0.5c0,0,0,0.1,0.1,0.1
			c0,0,0.1,0,0.2,0l0,0.1C13.3,29.7,13.1,29.8,13,29.8"/>
		<path class="st1" d="M15,29.6c-0.1,0.1-0.3,0.2-0.6,0.2c-0.3,0-0.4,0-0.4-0.1c0,0,0-0.1,0-0.2l0.2-0.8c0.1-0.3,0.1-0.5,0.2-0.8
			c0-0.2,0-0.3,0-0.3c0,0,0-0.1-0.1-0.1c0,0-0.1,0-0.2,0l0-0.1l0,0c0.2-0.1,0.4-0.1,0.4-0.1c0,0,0.1,0,0.1,0.1c0,0,0,0.1-0.1,0.4
			l-0.1,0.5c0,0.2,0,0.2-0.1,0.3c0.2-0.1,0.4-0.2,0.6-0.2c0.2,0,0.3,0.1,0.3,0.3C15.4,29,15.2,29.4,15,29.6 M15,28.5
			c-0.1,0-0.1,0-0.2,0.1c-0.1,0.1-0.2,0.1-0.2,0.2c0,0.1-0.1,0.2-0.1,0.4c-0.1,0.2-0.1,0.4-0.1,0.4c0,0.1,0.1,0.1,0.2,0.1
			c0.1,0,0.3-0.1,0.4-0.2c0.1-0.2,0.2-0.5,0.2-0.8C15.1,28.5,15.1,28.5,15,28.5"/>
		<path class="st1" d="M16.2,29.2c0,0-0.1,0-0.1,0c0,0.1,0,0.1,0,0.2c0,0.2,0.1,0.3,0.2,0.3c0.1,0,0.3-0.1,0.5-0.2l0,0.1
			c-0.3,0.2-0.5,0.2-0.6,0.2c-0.2,0-0.3-0.1-0.3-0.4c0-0.6,0.4-1.1,0.9-1.1c0.2,0,0.4,0.1,0.4,0.3C17,28.9,16.7,29.2,16.2,29.2
			 M16.6,28.5c-0.2,0-0.4,0.2-0.4,0.6h0c0.3,0,0.6-0.2,0.6-0.4C16.8,28.5,16.7,28.5,16.6,28.5"/>
		<path class="st1" d="M18.4,28.8l-0.1,0c0,0,0-0.1,0-0.1c0-0.1-0.1-0.1-0.1-0.1c-0.1,0-0.1,0-0.2,0.1c-0.1,0.2-0.2,0.4-0.3,0.8
			l-0.1,0.3c-0.1,0-0.2,0-0.3,0c0-0.1,0.1-0.2,0.1-0.4l0.1-0.3c0.1-0.2,0.1-0.4,0.1-0.4c0-0.1,0-0.1-0.1-0.1c0,0-0.1,0-0.1,0l-0.1,0
			l0-0.1c0.2-0.1,0.4-0.1,0.5-0.1c0,0,0.1,0,0.1,0c0,0,0,0.1,0,0.1c0.2-0.1,0.3-0.2,0.4-0.2c0.1,0,0.2,0,0.2,0.1
			C18.5,28.5,18.5,28.7,18.4,28.8"/>
		<path class="st1" d="M19.7,28.5l-0.3,0l-0.1,0.7c0,0.2,0,0.2,0,0.3c0,0,0,0.1,0.1,0.1c0,0,0.1,0,0.2,0l0,0l0,0.1
			c-0.2,0.1-0.4,0.1-0.5,0.1c-0.1,0-0.1,0-0.1-0.1c0-0.1,0-0.1,0-0.3c0-0.1,0.1-0.2,0.1-0.4l0.1-0.5l-0.2,0l0-0.1
			c0.2,0,0.3-0.2,0.4-0.4l0.2,0l-0.1,0.4h0.3L19.7,28.5z"/>
		<path class="st1" d="M20.7,28.1L20.6,28l0.4-0.5l0.3,0.1L20.7,28.1z M20.3,29.2C20.3,29.2,20.3,29.2,20.3,29.2
			c-0.1,0.1-0.1,0.1-0.1,0.2c0,0.2,0.1,0.3,0.2,0.3c0.1,0,0.3-0.1,0.5-0.2l0,0.1c-0.3,0.2-0.5,0.2-0.6,0.2c-0.2,0-0.3-0.1-0.3-0.4
			c0-0.6,0.4-1.1,0.9-1.1c0.2,0,0.4,0.1,0.4,0.3C21.2,28.9,20.8,29.2,20.3,29.2 M20.7,28.5c-0.2,0-0.4,0.2-0.4,0.6h0
			c0.3,0,0.6-0.2,0.6-0.4C20.9,28.5,20.8,28.5,20.7,28.5"/>
		<path class="st1" d="M26.9,27.1L26.8,27l0.4-0.5l0.3,0.1L26.9,27.1z M27.5,27.9h-0.1C27.5,27.8,27.5,27.8,27.5,27.9
			c-0.1-0.3-0.2-0.3-0.6-0.3c-0.1,0-0.2,0-0.3,0c-0.1,0.3-0.1,0.6-0.2,0.9h0.1c0.2,0,0.3,0,0.4,0c0.1,0,0.2-0.1,0.2-0.2h0.1
			c0,0.2-0.1,0.5-0.1,0.7h-0.1c0,0,0,0,0-0.1c0-0.2-0.1-0.2-0.4-0.2c-0.2,0-0.2,0-0.3,0c0,0.1,0,0-0.1,0.4c0,0.2-0.1,0.3-0.1,0.4
			c0,0.1,0.1,0.2,0.3,0.2c0.5,0,0.6-0.1,0.7-0.4l0.1,0c-0.1,0.2-0.2,0.4-0.2,0.5c0,0-0.1,0.1-0.2,0.1c-0.1,0-0.3,0-0.4,0
			c-0.2,0-0.3,0-0.5,0c-0.2,0-0.3,0-0.5,0l0-0.1c0.1,0,0.2,0,0.2-0.1c0.1-0.1,0.1-0.2,0.1-0.4c0-0.2,0.1-0.3,0.1-0.7l0.1-0.3
			c0.1-0.3,0.1-0.4,0.1-0.5c0-0.2-0.1-0.2-0.2-0.2l0-0.1h1.6C27.6,27.5,27.6,27.7,27.5,27.9"/>
		<path class="st1" d="M29.3,28.5l-0.2,0c0,0.1,0.1,0.1,0.1,0.2c0,0.3-0.3,0.6-0.6,0.6c-0.1,0-0.1,0-0.2,0c-0.1,0.1-0.1,0.1-0.1,0.1
			c0,0,0,0.1,0.2,0.1l0.3,0.1c0.3,0.1,0.4,0.2,0.4,0.4c0,0.4-0.4,0.7-0.9,0.7c-0.4,0-0.6-0.2-0.6-0.5c0-0.3,0.2-0.4,0.5-0.5
			c-0.2-0.1-0.2-0.1-0.2-0.2c0-0.1,0.1-0.2,0.3-0.3c-0.1-0.1-0.2-0.2-0.2-0.3c0-0.3,0.3-0.6,0.6-0.6c0.1,0,0.2,0,0.2,0h0.5
			L29.3,28.5z M28.6,28.5c-0.2,0-0.4,0.2-0.4,0.4c0,0.2,0.1,0.3,0.2,0.3c0.2,0,0.3-0.2,0.3-0.4C28.9,28.6,28.8,28.5,28.6,28.5
			 M28.7,29.9c-0.1,0-0.3-0.1-0.4-0.1c-0.2,0.1-0.4,0.2-0.4,0.4c0,0.2,0.2,0.3,0.4,0.3c0.3,0,0.6-0.2,0.6-0.4
			C28.9,30,28.8,29.9,28.7,29.9"/>
		<path class="st1" d="M30.7,29.8c-0.1,0-0.1,0-0.1-0.2c-0.3,0.2-0.5,0.2-0.6,0.2c-0.2,0-0.3-0.1-0.3-0.3c0-0.2,0.1-0.5,0.2-0.7
			c0.2-0.3,0.4-0.5,0.8-0.5c0.2,0,0.3,0,0.5,0.1l0,0.1c-0.1,0.4-0.2,0.9-0.2,1c0,0.1,0,0.1,0.1,0.1c0,0,0.1,0,0.2,0l0,0.1
			C30.9,29.7,30.7,29.8,30.7,29.8 M30.5,28.5c-0.1,0-0.3,0.1-0.4,0.3c-0.1,0.2-0.2,0.5-0.2,0.7c0,0.1,0,0.2,0.1,0.2
			c0.1,0,0.4-0.1,0.5-0.2c0-0.1,0.1-0.1,0.1-0.3c0.1-0.2,0.1-0.4,0.1-0.7C30.6,28.5,30.5,28.5,30.5,28.5"/>
		<path class="st1" d="M32.2,27.7c-0.1,0.5-0.2,1-0.4,1.5c0,0.2-0.1,0.3-0.1,0.3c0,0,0,0.1,0.1,0.1c0,0,0.1,0,0.2,0l0,0.1
			c-0.2,0.1-0.4,0.1-0.5,0.1c-0.1,0-0.1,0-0.1-0.1c0,0,0-0.1,0.1-0.3c0.1-0.5,0.2-1,0.3-1.4c0-0.2,0.1-0.3,0.1-0.3
			c0,0,0-0.1-0.1-0.1c0,0-0.1,0-0.2,0l0-0.1c0.2-0.1,0.4-0.1,0.5-0.1c0,0,0.1,0,0.1,0.1C32.3,27.4,32.3,27.5,32.2,27.7"/>
		<path class="st1" d="M33.1,28c-0.1,0-0.2-0.1-0.2-0.2c0-0.1,0.1-0.2,0.2-0.2c0.1,0,0.2,0.1,0.2,0.2C33.3,27.9,33.2,28,33.1,28
			 M32.7,29.8c-0.1,0-0.1,0-0.1-0.1c0,0,0-0.1,0-0.2c0-0.2,0.1-0.4,0.1-0.6c0-0.2,0.1-0.3,0.1-0.4c0,0,0-0.1-0.1-0.1
			c0,0-0.1,0-0.1,0l0,0l0-0.1c0.2-0.1,0.4-0.1,0.5-0.1c0.1,0,0.1,0,0.1,0.1c0,0,0,0.2-0.1,0.4l0,0.2c-0.1,0.3-0.1,0.5-0.1,0.5
			c0,0,0,0.1,0.1,0.1c0,0,0.1,0,0.2,0l0,0.1C33,29.7,32.8,29.8,32.7,29.8"/>
		<path class="st1" d="M34.5,28.5l-0.3,0l-0.2,0.7c0,0.2,0,0.2,0,0.3c0,0,0,0.1,0.1,0.1c0,0,0.1,0,0.2,0l0,0l0,0.1
			c-0.2,0.1-0.4,0.1-0.5,0.1c-0.1,0-0.1,0-0.1-0.1c0-0.1,0-0.1,0-0.3c0-0.1,0.1-0.2,0.1-0.4l0.1-0.5l-0.2,0l0-0.1
			c0.2,0,0.3-0.2,0.4-0.4l0.2,0l-0.1,0.4h0.3L34.5,28.5z"/>
		<path class="st1" d="M35.6,28.1L35.5,28l0.4-0.5l0.3,0.1L35.6,28.1z M35.2,29.2c0,0-0.1,0-0.1,0c0,0.1,0,0.1,0,0.2
			c0,0.2,0.1,0.3,0.2,0.3c0.1,0,0.3-0.1,0.5-0.2l0,0.1c-0.3,0.2-0.5,0.2-0.6,0.2c-0.2,0-0.3-0.1-0.3-0.4c0-0.6,0.4-1.1,0.9-1.1
			c0.2,0,0.4,0.1,0.4,0.3C36,28.9,35.7,29.2,35.2,29.2 M35.6,28.5c-0.2,0-0.4,0.2-0.4,0.6h0c0.3,0,0.6-0.2,0.6-0.4
			C35.8,28.5,35.7,28.5,35.6,28.5"/>
		<path class="st1" d="M42.4,27.9h-0.1C42.3,27.8,42.3,27.8,42.4,27.9c-0.1-0.2-0.1-0.2-0.2-0.3c-0.1-0.1-0.2-0.1-0.5-0.1
			c-0.1,0-0.2,0-0.3,0c-0.1,0.3-0.1,0.6-0.2,0.9c0.1,0,0.1,0,0.2,0c0.4,0,0.5,0,0.5-0.3h0.1c-0.1,0.2-0.1,0.5-0.1,0.7h-0.1
			c0,0,0,0,0-0.1c0-0.1,0-0.1-0.1-0.2c-0.1,0-0.1-0.1-0.3-0.1c-0.1,0-0.1,0-0.2,0l0,0.3c-0.1,0.3-0.1,0.5-0.1,0.6
			c0,0.1,0.1,0.2,0.2,0.2l0,0.1l-0.1,0h-0.3h-0.5l-0.1,0l0-0.1c0.1,0,0.2,0,0.2-0.1c0.1-0.1,0.1-0.2,0.1-0.4
			c0.1-0.2,0.1-0.3,0.1-0.7l0.1-0.3c0.1-0.3,0.1-0.4,0.1-0.5c0-0.2-0.1-0.2-0.2-0.2l0-0.1h1.6C42.4,27.5,42.4,27.7,42.4,27.9"/>
		<path class="st1" d="M43.6,28.8l-0.1,0c0,0,0-0.1,0-0.1c0-0.1-0.1-0.1-0.1-0.1c-0.1,0-0.1,0-0.2,0.1C43,28.8,43,29,42.9,29.4
			l-0.1,0.3c-0.1,0-0.2,0-0.3,0c0-0.1,0.1-0.2,0.1-0.4l0.1-0.3c0.1-0.2,0.1-0.4,0.1-0.4c0-0.1,0-0.1-0.1-0.1c0,0-0.1,0-0.1,0l-0.1,0
			l0-0.1c0.2-0.1,0.4-0.1,0.5-0.1c0,0,0.1,0,0.1,0c0,0,0,0.1,0,0.1c0.2-0.1,0.3-0.2,0.4-0.2c0.1,0,0.2,0,0.2,0.1
			C43.7,28.5,43.6,28.7,43.6,28.8"/>
		<path class="st1" d="M45,29.8c-0.1,0-0.1,0-0.1-0.2c-0.3,0.2-0.5,0.2-0.6,0.2c-0.2,0-0.3-0.1-0.3-0.3c0-0.2,0.1-0.5,0.2-0.7
			c0.2-0.3,0.4-0.5,0.8-0.5c0.2,0,0.3,0,0.5,0.1l0,0.1c-0.1,0.4-0.2,0.9-0.2,1c0,0.1,0,0.1,0.1,0.1c0,0,0.1,0,0.2,0l0,0.1
			C45.2,29.7,45,29.8,45,29.8 M44.8,28.5c-0.1,0-0.3,0.1-0.4,0.3c-0.1,0.2-0.2,0.5-0.2,0.7c0,0.1,0.1,0.2,0.1,0.2
			c0.1,0,0.4-0.1,0.5-0.2c0-0.1,0.1-0.1,0.1-0.3C45,29,45,28.8,45,28.5C45,28.5,44.9,28.5,44.8,28.5"/>
		<path class="st1" d="M46.7,28.5l-0.3,0l-0.1,0.7c0,0.2,0,0.2,0,0.3c0,0,0,0.1,0.1,0.1c0,0,0.1,0,0.2,0l0,0l0,0.1
			c-0.2,0.1-0.4,0.1-0.5,0.1c-0.1,0-0.1,0-0.1-0.1c0-0.1,0-0.1,0-0.3c0-0.1,0.1-0.2,0.1-0.4l0.1-0.5l-0.2,0l0-0.1
			c0.2,0,0.3-0.2,0.4-0.4l0.2,0l-0.1,0.4h0.3L46.7,28.5z"/>
		<path class="st1" d="M47.4,29.2C47.4,29.2,47.3,29.2,47.4,29.2c-0.1,0.1-0.1,0.1-0.1,0.2c0,0.2,0.1,0.3,0.2,0.3
			c0.1,0,0.3-0.1,0.5-0.2l0,0.1c-0.3,0.2-0.5,0.2-0.6,0.2c-0.2,0-0.3-0.1-0.3-0.4c0-0.6,0.4-1.1,0.9-1.1c0.2,0,0.4,0.1,0.4,0.3
			C48.2,28.9,47.8,29.2,47.4,29.2 M47.8,28.5c-0.2,0-0.3,0.2-0.4,0.6h0c0.3,0,0.6-0.2,0.6-0.4C47.9,28.5,47.8,28.5,47.8,28.5"/>
		<path class="st1" d="M49.6,28.8l-0.1,0c0,0,0-0.1,0-0.1c0-0.1-0.1-0.1-0.1-0.1c-0.1,0-0.1,0-0.2,0.1c-0.1,0.2-0.2,0.4-0.3,0.8
			l-0.1,0.3c-0.1,0-0.2,0-0.3,0c0-0.1,0.1-0.2,0.1-0.4l0.1-0.3c0-0.2,0.1-0.4,0.1-0.4c0-0.1,0-0.1-0.1-0.1c0,0,0,0-0.1,0l-0.1,0
			l0-0.1c0.2-0.1,0.4-0.1,0.5-0.1c0,0,0.1,0,0.1,0c0,0,0,0.1,0,0.1c0.2-0.1,0.3-0.2,0.4-0.2c0.1,0,0.2,0,0.2,0.1
			C49.7,28.5,49.6,28.7,49.6,28.8"/>
		<path class="st1" d="M51,29.8c-0.1,0-0.1,0-0.1-0.1c0,0,0-0.1,0.1-0.3l0-0.2c0.1-0.4,0.1-0.6,0.1-0.7c0-0.1,0-0.1-0.1-0.1
			c-0.1,0-0.2,0-0.3,0.1c-0.1,0.1-0.2,0.1-0.2,0.2c0,0.1-0.1,0.1-0.1,0.3c-0.1,0.3-0.1,0.4-0.1,0.6c-0.1,0-0.2,0-0.3,0
			c0.1-0.3,0.1-0.5,0.2-0.7c0.1-0.2,0.1-0.4,0.1-0.4c0-0.1,0-0.1-0.1-0.1c0,0-0.1,0-0.2,0l0-0.1c0.2-0.1,0.4-0.1,0.4-0.1
			c0.1,0,0.1,0,0.1,0.2v0c0.3-0.2,0.5-0.2,0.7-0.2c0.1,0,0.2,0,0.2,0.1c0,0.1,0,0.2-0.1,0.5c0,0.2-0.1,0.3-0.1,0.4
			c0,0.1,0,0.2,0,0.2c0,0.1,0,0.1,0.1,0.1c0,0,0.1,0,0.2,0l0,0.1C51.3,29.7,51.1,29.8,51,29.8"/>
		<path class="st1" d="M52.5,28c-0.1,0-0.2-0.1-0.2-0.2c0-0.1,0.1-0.2,0.2-0.2c0.1,0,0.2,0.1,0.2,0.2C52.8,27.9,52.7,28,52.5,28
			 M52.2,29.8c-0.1,0-0.1,0-0.1-0.1c0,0,0-0.1,0-0.2c0-0.2,0.1-0.4,0.1-0.6c0-0.2,0.1-0.3,0.1-0.4c0,0,0-0.1-0.1-0.1
			c0,0-0.1,0-0.1,0l0,0l0-0.1c0.2-0.1,0.4-0.1,0.5-0.1c0.1,0,0.1,0,0.1,0.1c0,0,0,0.2-0.1,0.4L52.5,29c-0.1,0.3-0.1,0.5-0.1,0.5
			c0,0,0,0.1,0.1,0.1c0,0,0.1,0,0.2,0l0,0.1C52.5,29.7,52.3,29.8,52.2,29.8"/>
		<path class="st1" d="M53.9,28.5l-0.3,0l-0.1,0.7c0,0.2,0,0.2,0,0.3c0,0,0,0.1,0.1,0.1c0,0,0.1,0,0.2,0l0,0l0,0.1
			c-0.2,0.1-0.4,0.1-0.5,0.1c-0.1,0-0.1,0-0.1-0.1c0-0.1,0-0.1,0.1-0.3c0-0.1,0.1-0.2,0.1-0.4l0.1-0.5l-0.2,0l0-0.1
			c0.2,0,0.3-0.2,0.4-0.4l0.2,0l-0.1,0.4H54L53.9,28.5z"/>
		<path class="st1" d="M55,28.1L54.9,28l0.4-0.5l0.3,0.1L55,28.1z M54.6,29.2C54.6,29.2,54.6,29.2,54.6,29.2
			c-0.1,0.1-0.1,0.1-0.1,0.2c0,0.2,0.1,0.3,0.2,0.3c0.1,0,0.3-0.1,0.5-0.2l0,0.1c-0.3,0.2-0.5,0.2-0.6,0.2c-0.2,0-0.3-0.1-0.3-0.4
			c0-0.6,0.4-1.1,0.9-1.1c0.2,0,0.4,0.1,0.4,0.3C55.5,28.9,55.1,29.2,54.6,29.2 M55,28.5c-0.2,0-0.3,0.2-0.4,0.6h0
			c0.3,0,0.6-0.2,0.6-0.4C55.2,28.5,55.1,28.5,55,28.5"/>
		<path class="st1" d="M38.3,29.1c0.2,0,0.4-0.2,0.4-0.4c0-0.2-0.2-0.4-0.4-0.4c-0.2,0-0.4,0.2-0.4,0.4
			C37.9,28.9,38.1,29.1,38.3,29.1"/>
		<path class="st1" d="M23.5,29.1c0.2,0,0.4-0.2,0.4-0.4c0-0.2-0.2-0.4-0.4-0.4c-0.2,0-0.4,0.2-0.4,0.4C23,28.9,23.2,29.1,23.5,29.1
			"/>
		<rect x="11" y="31.2" class="st1" width="44.5" height="0.4"/>
	</g>
</g>
<g>
	<g>
		<rect x="65.5" y="0.9" class="st0" width="103.5" height="44.2"/>
		<path class="st1" d="M169.3,45.4h-104V0.7h104V45.4z M65.7,44.9h103.1V1.2H65.7V44.9z"/>
	</g>
</g>
<g>
	<path class="st1" d="M105.3,13.9l-1.4-3.2v2.5c0,0.2,0,0.4,0.1,0.4c0.1,0.1,0.2,0.1,0.3,0.1h0.1v0.1h-1.3v-0.1h0.1
		c0.2,0,0.3,0,0.3-0.1c0-0.1,0.1-0.2,0.1-0.4v-2.5c0-0.2,0-0.3-0.1-0.4c0-0.1-0.1-0.1-0.1-0.1c-0.1,0-0.2-0.1-0.3-0.1v-0.1h1.1
		l1.4,2.9l1.3-2.9h1.1v0.1h-0.1c-0.2,0-0.3,0-0.3,0.1c0,0.1-0.1,0.2-0.1,0.4v2.5c0,0.2,0,0.4,0.1,0.4c0.1,0.1,0.2,0.1,0.3,0.1h0.1
		v0.1h-1.6v-0.1h0.1c0.2,0,0.3,0,0.3-0.1c0-0.1,0.1-0.2,0.1-0.4v-2.5L105.3,13.9L105.3,13.9z"/>
	<path class="st1" d="M109.8,13.8v0.1h-1.6v-0.1h0.1c0.2,0,0.3,0,0.3-0.1c0-0.1,0.1-0.2,0.1-0.4v-2.4c0-0.2,0-0.3,0-0.4
		c0,0-0.1-0.1-0.1-0.1c-0.1,0-0.2-0.1-0.3-0.1h-0.1v-0.1h1.6v0.1h-0.1c-0.2,0-0.3,0-0.3,0.1c0,0.1-0.1,0.2-0.1,0.4v2.4
		c0,0.2,0,0.3,0,0.4c0,0,0.1,0.1,0.1,0.1c0.1,0,0.2,0.1,0.3,0.1H109.8z"/>
	<path class="st1" d="M109.8,10.1h1l2.3,2.8v-2.2c0-0.2,0-0.4-0.1-0.4c-0.1-0.1-0.2-0.1-0.3-0.1h-0.1v-0.1h1.3v0.1h-0.1
		c-0.2,0-0.3,0-0.3,0.1c0,0.1-0.1,0.2-0.1,0.4V14h-0.1l-2.5-3v2.3c0,0.2,0,0.4,0.1,0.4c0.1,0.1,0.2,0.1,0.3,0.1h0.1v0.1H110v-0.1
		h0.1c0.2,0,0.3,0,0.3-0.1c0-0.1,0.1-0.2,0.1-0.4v-2.6c-0.1-0.1-0.2-0.2-0.2-0.3c-0.1,0-0.1-0.1-0.2-0.1c-0.1,0-0.1,0-0.2,0V10.1z"
		/>
	<path class="st1" d="M115.8,13.8v0.1h-1.6v-0.1h0.1c0.2,0,0.3,0,0.3-0.1c0-0.1,0.1-0.2,0.1-0.4v-2.4c0-0.2,0-0.3,0-0.4
		c0,0-0.1-0.1-0.1-0.1c-0.1,0-0.2-0.1-0.3-0.1h-0.1v-0.1h1.6v0.1h-0.1c-0.2,0-0.3,0-0.3,0.1c0,0.1-0.1,0.2-0.1,0.4v2.4
		c0,0.2,0,0.3,0,0.4c0,0,0.1,0.1,0.1,0.1c0.1,0,0.2,0.1,0.3,0.1H115.8z"/>
	<path class="st1" d="M118.5,10.1v1.3h-0.1c0-0.2-0.1-0.4-0.2-0.6c-0.1-0.1-0.2-0.3-0.4-0.4c-0.2-0.1-0.3-0.1-0.5-0.1
		c-0.2,0-0.4,0.1-0.5,0.2c-0.1,0.1-0.2,0.3-0.2,0.4c0,0.1,0,0.2,0.1,0.3c0.1,0.1,0.4,0.3,0.8,0.6c0.4,0.2,0.6,0.3,0.7,0.4
		c0.1,0.1,0.2,0.2,0.3,0.4c0.1,0.1,0.1,0.3,0.1,0.4c0,0.3-0.1,0.5-0.3,0.7c-0.2,0.2-0.5,0.3-0.9,0.3c-0.1,0-0.2,0-0.3,0
		c-0.1,0-0.2,0-0.4-0.1c-0.2-0.1-0.3-0.1-0.3-0.1c0,0-0.1,0-0.1,0c0,0,0,0.1-0.1,0.2h-0.1v-1.3h0.1c0,0.3,0.1,0.5,0.2,0.6
		c0.1,0.1,0.2,0.2,0.4,0.3c0.2,0.1,0.4,0.1,0.5,0.1c0.2,0,0.4-0.1,0.5-0.2c0.1-0.1,0.2-0.3,0.2-0.4c0-0.1,0-0.2-0.1-0.3
		c-0.1-0.1-0.1-0.2-0.2-0.3c-0.1-0.1-0.3-0.2-0.6-0.4c-0.3-0.2-0.5-0.3-0.7-0.4c-0.1-0.1-0.2-0.2-0.3-0.4c-0.1-0.1-0.1-0.3-0.1-0.4
		c0-0.3,0.1-0.5,0.3-0.7c0.2-0.2,0.5-0.3,0.8-0.3c0.2,0,0.4,0,0.6,0.1c0.1,0,0.2,0.1,0.2,0.1c0,0,0.1,0,0.1,0c0,0,0.1-0.1,0.1-0.2
		H118.5z"/>
	<path class="st1" d="M122.3,10.1l0,0.9h-0.1c0-0.2,0-0.3-0.1-0.3c-0.1-0.1-0.1-0.2-0.2-0.2c-0.1-0.1-0.2-0.1-0.4-0.1H121v2.9
		c0,0.2,0,0.4,0.1,0.4c0.1,0.1,0.2,0.1,0.3,0.1h0.1v0.1H120v-0.1h0.1c0.2,0,0.3,0,0.3-0.1c0-0.1,0.1-0.2,0.1-0.4v-2.9h-0.5
		c-0.2,0-0.3,0-0.4,0c-0.1,0-0.2,0.1-0.2,0.2c-0.1,0.1-0.1,0.2-0.1,0.4h-0.1l0-0.9H122.3z"/>
	<path class="st1" d="M123.7,10.3v1.5h0.8c0.2,0,0.4,0,0.4-0.1c0.1-0.1,0.1-0.2,0.2-0.4h0.1v1.3h-0.1c0-0.2-0.1-0.3-0.1-0.4
		c0-0.1-0.1-0.1-0.2-0.2c-0.1,0-0.2-0.1-0.3-0.1h-0.8v1.2c0,0.2,0,0.3,0,0.3c0,0,0,0.1,0.1,0.1c0,0,0.1,0,0.2,0h0.6
		c0.2,0,0.4,0,0.5,0c0.1,0,0.2-0.1,0.3-0.2c0.1-0.1,0.2-0.3,0.4-0.5h0.1l-0.3,0.9h-2.9v-0.1h0.1c0.1,0,0.2,0,0.3-0.1
		c0.1,0,0.1-0.1,0.1-0.1c0-0.1,0-0.2,0-0.4v-2.4c0-0.2,0-0.4-0.1-0.4c-0.1-0.1-0.2-0.1-0.3-0.1h-0.1v-0.1h2.9l0,0.8h-0.1
		c0-0.2-0.1-0.3-0.1-0.4c0-0.1-0.1-0.1-0.2-0.2c-0.1,0-0.2,0-0.4,0H123.7z M123.6,8.9h0.6l0.3,1h-0.1L123.6,8.9z"/>
	<path class="st1" d="M129.8,13.9h-1l-1.3-1.8c-0.1,0-0.2,0-0.2,0c0,0,0,0-0.1,0c0,0-0.1,0-0.1,0v1.1c0,0.2,0,0.4,0.1,0.4
		c0.1,0.1,0.2,0.1,0.3,0.1h0.1v0.1h-1.6v-0.1h0.1c0.2,0,0.3-0.1,0.3-0.2c0-0.1,0.1-0.2,0.1-0.4v-2.4c0-0.2,0-0.4-0.1-0.4
		c-0.1-0.1-0.2-0.1-0.3-0.1h-0.1v-0.1h1.4c0.4,0,0.7,0,0.9,0.1c0.2,0.1,0.3,0.2,0.5,0.3c0.1,0.2,0.2,0.3,0.2,0.6
		c0,0.2-0.1,0.4-0.2,0.6c-0.1,0.2-0.4,0.3-0.7,0.4l0.8,1.1c0.2,0.2,0.3,0.4,0.5,0.5c0.1,0.1,0.3,0.1,0.5,0.2V13.9z M127.1,12
		C127.2,12,127.2,12,127.1,12c0.1,0,0.1,0,0.2,0c0.4,0,0.6-0.1,0.8-0.2c0.2-0.2,0.3-0.4,0.3-0.6c0-0.2-0.1-0.4-0.2-0.6
		s-0.3-0.2-0.6-0.2c-0.1,0-0.3,0-0.4,0.1V12z"/>
	<path class="st1" d="M130.9,10.3v1.5h0.8c0.2,0,0.4,0,0.4-0.1c0.1-0.1,0.1-0.2,0.2-0.4h0.1v1.3h-0.1c0-0.2-0.1-0.3-0.1-0.4
		c0-0.1-0.1-0.1-0.2-0.2c-0.1,0-0.2-0.1-0.3-0.1h-0.8v1.2c0,0.2,0,0.3,0,0.3c0,0,0,0.1,0.1,0.1c0,0,0.1,0,0.2,0h0.6
		c0.2,0,0.4,0,0.5,0c0.1,0,0.2-0.1,0.3-0.2c0.1-0.1,0.2-0.3,0.4-0.5h0.1l-0.3,0.9h-2.9v-0.1h0.1c0.1,0,0.2,0,0.3-0.1
		c0.1,0,0.1-0.1,0.1-0.1c0-0.1,0-0.2,0-0.4v-2.4c0-0.2,0-0.4-0.1-0.4c-0.1-0.1-0.2-0.1-0.3-0.1h-0.1v-0.1h2.9l0,0.8h-0.1
		c0-0.2-0.1-0.3-0.1-0.4c0-0.1-0.1-0.1-0.2-0.2c-0.1,0-0.2,0-0.4,0H130.9z"/>
	<path class="st1" d="M71.9,21.2v-0.1h0.1c0.2,0,0.3-0.1,0.3-0.2c0-0.1,0.1-0.2,0.1-0.4v-2.4c0-0.2,0-0.4-0.1-0.4
		c-0.1-0.1-0.2-0.1-0.3-0.1h-0.1v-0.1h1.5c0.6,0,1,0.1,1.3,0.2c0.3,0.1,0.5,0.3,0.7,0.6c0.2,0.3,0.3,0.6,0.3,1c0,0.5-0.2,1-0.5,1.3
		c-0.4,0.4-0.9,0.6-1.6,0.6H71.9z M73,20.9c0.2,0.1,0.4,0.1,0.6,0.1c0.4,0,0.8-0.2,1.1-0.5c0.3-0.3,0.4-0.7,0.4-1.2
		c0-0.5-0.1-0.9-0.4-1.2c-0.3-0.3-0.6-0.4-1.1-0.4c-0.2,0-0.4,0-0.6,0.1V20.9z"/>
	<path class="st1" d="M77.1,17.7v1.5h0.8c0.2,0,0.4,0,0.4-0.1c0.1-0.1,0.1-0.2,0.2-0.4h0.1v1.3h-0.1c0-0.2-0.1-0.3-0.1-0.4
		c0-0.1-0.1-0.1-0.2-0.2c-0.1,0-0.2-0.1-0.3-0.1h-0.8v1.2c0,0.2,0,0.3,0,0.3c0,0,0,0.1,0.1,0.1c0,0,0.1,0,0.2,0h0.6
		c0.2,0,0.4,0,0.5,0c0.1,0,0.2-0.1,0.3-0.2c0.1-0.1,0.2-0.3,0.4-0.5h0.1l-0.3,0.9H76v-0.1h0.1c0.1,0,0.2,0,0.3-0.1
		c0.1,0,0.1-0.1,0.1-0.1c0-0.1,0-0.2,0-0.4v-2.4c0-0.2,0-0.4-0.1-0.4c-0.1-0.1-0.2-0.1-0.3-0.1H76v-0.1h2.9l0,0.8h-0.1
		c0-0.2-0.1-0.3-0.1-0.4c0-0.1-0.1-0.1-0.2-0.2c-0.1,0-0.2,0-0.4,0H77.1z"/>
	<path class="st1" d="M84.1,20.2L84.1,20.2l-0.2,1h-2.9v-0.1h0.1c0.2,0,0.3-0.1,0.3-0.2c0-0.1,0.1-0.2,0.1-0.4v-2.4
		c0-0.2,0-0.4-0.1-0.4c-0.1-0.1-0.2-0.1-0.3-0.1h-0.1v-0.1h1.7v0.1c-0.2,0-0.3,0-0.4,0.1c-0.1,0-0.1,0.1-0.2,0.1c0,0.1,0,0.2,0,0.4
		v2.4c0,0.2,0,0.3,0,0.3c0,0,0.1,0.1,0.1,0.1c0,0,0.2,0,0.4,0h0.3c0.3,0,0.5,0,0.6-0.1c0.1,0,0.2-0.1,0.3-0.2
		C83.9,20.6,84,20.4,84.1,20.2z"/>
	<path class="st1" d="M84.4,18.8v-0.1c0.2-0.1,0.3-0.2,0.4-0.3c0-0.1,0.1-0.2,0.1-0.3c0-0.1,0-0.1,0-0.1c0,0,0,0-0.1,0
		c0,0,0,0-0.1,0c0,0-0.1,0-0.1,0c-0.1,0-0.1,0-0.2-0.1c-0.1-0.1-0.1-0.1-0.1-0.2c0-0.1,0-0.2,0.1-0.2c0.1-0.1,0.2-0.1,0.3-0.1
		c0.1,0,0.2,0.1,0.3,0.2c0.1,0.1,0.1,0.2,0.1,0.4c0,0.2-0.1,0.4-0.2,0.6C84.8,18.6,84.6,18.7,84.4,18.8z"/>
	<path class="st1" d="M86.8,17.7v1.5h0.8c0.2,0,0.4,0,0.4-0.1c0.1-0.1,0.1-0.2,0.2-0.4h0.1v1.3h-0.1c0-0.2-0.1-0.3-0.1-0.4
		c0-0.1-0.1-0.1-0.2-0.2c-0.1,0-0.2-0.1-0.3-0.1h-0.8v1.2c0,0.2,0,0.3,0,0.3c0,0,0,0.1,0.1,0.1c0,0,0.1,0,0.2,0h0.6
		c0.2,0,0.4,0,0.5,0c0.1,0,0.2-0.1,0.3-0.2c0.1-0.1,0.2-0.3,0.4-0.5H89l-0.3,0.9h-2.9v-0.1h0.1c0.1,0,0.2,0,0.3-0.1
		c0.1,0,0.1-0.1,0.1-0.1c0-0.1,0-0.2,0-0.4v-2.4c0-0.2,0-0.4-0.1-0.4c-0.1-0.1-0.2-0.1-0.3-0.1h-0.1v-0.1h2.9l0,0.8h-0.1
		c0-0.2-0.1-0.3-0.1-0.4c0-0.1-0.1-0.1-0.2-0.2c-0.1,0-0.2,0-0.4,0H86.8z"/>
	<path class="st1" d="M89,17.5h1l2.3,2.8v-2.2c0-0.2,0-0.4-0.1-0.4c-0.1-0.1-0.2-0.1-0.3-0.1h-0.1v-0.1h1.3v0.1H93
		c-0.2,0-0.3,0-0.3,0.1c0,0.1-0.1,0.2-0.1,0.4v3.2h-0.1l-2.5-3v2.3c0,0.2,0,0.4,0.1,0.4c0.1,0.1,0.2,0.1,0.3,0.1h0.1v0.1h-1.3v-0.1
		h0.1c0.2,0,0.3,0,0.3-0.1c0-0.1,0.1-0.2,0.1-0.4V18c-0.1-0.1-0.2-0.2-0.2-0.3c-0.1,0-0.1-0.1-0.2-0.1c-0.1,0-0.1,0-0.2,0V17.5z"/>
	<path class="st1" d="M95.8,17.4v1.3h-0.1c0-0.2-0.1-0.4-0.2-0.6c-0.1-0.1-0.2-0.3-0.4-0.4s-0.3-0.1-0.5-0.1c-0.2,0-0.4,0.1-0.5,0.2
		C94,17.9,94,18,94,18.2c0,0.1,0,0.2,0.1,0.3c0.1,0.1,0.4,0.3,0.8,0.6c0.4,0.2,0.6,0.3,0.7,0.4c0.1,0.1,0.2,0.2,0.3,0.4
		C96,20,96,20.1,96,20.3c0,0.3-0.1,0.5-0.3,0.7c-0.2,0.2-0.5,0.3-0.9,0.3c-0.1,0-0.2,0-0.3,0c-0.1,0-0.2,0-0.4-0.1
		c-0.2-0.1-0.3-0.1-0.3-0.1c0,0-0.1,0-0.1,0c0,0,0,0.1-0.1,0.2h-0.1V20h0.1c0,0.3,0.1,0.5,0.2,0.6c0.1,0.1,0.2,0.2,0.4,0.3
		c0.2,0.1,0.3,0.1,0.5,0.1c0.2,0,0.4-0.1,0.5-0.2c0.1-0.1,0.2-0.3,0.2-0.4c0-0.1,0-0.2-0.1-0.3c-0.1-0.1-0.1-0.2-0.2-0.3
		c-0.1-0.1-0.3-0.2-0.6-0.4c-0.3-0.2-0.5-0.3-0.7-0.4c-0.1-0.1-0.2-0.2-0.3-0.4c-0.1-0.1-0.1-0.3-0.1-0.4c0-0.3,0.1-0.5,0.3-0.7
		c0.2-0.2,0.5-0.3,0.8-0.3c0.2,0,0.4,0,0.6,0.1c0.1,0,0.2,0.1,0.2,0.1c0,0,0.1,0,0.1,0c0,0,0.1-0.1,0.1-0.2H95.8z"/>
	<path class="st1" d="M97.5,17.7v1.5h0.8c0.2,0,0.4,0,0.4-0.1c0.1-0.1,0.1-0.2,0.2-0.4H99v1.3h-0.1c0-0.2-0.1-0.3-0.1-0.4
		c0-0.1-0.1-0.1-0.2-0.2c-0.1,0-0.2-0.1-0.3-0.1h-0.8v1.2c0,0.2,0,0.3,0,0.3c0,0,0,0.1,0.1,0.1c0,0,0.1,0,0.2,0h0.6
		c0.2,0,0.4,0,0.5,0c0.1,0,0.2-0.1,0.3-0.2c0.1-0.1,0.2-0.3,0.4-0.5h0.1l-0.3,0.9h-2.9v-0.1h0.1c0.1,0,0.2,0,0.3-0.1
		c0.1,0,0.1-0.1,0.1-0.1c0-0.1,0-0.2,0-0.4v-2.4c0-0.2,0-0.4-0.1-0.4c-0.1-0.1-0.2-0.1-0.3-0.1h-0.1v-0.1h2.9l0,0.8h-0.1
		c0-0.2-0.1-0.3-0.1-0.4c0-0.1-0.1-0.1-0.2-0.2c-0.1,0-0.2,0-0.4,0H97.5z"/>
	<path class="st1" d="M101.5,21.1v0.1h-1.6v-0.1h0.1c0.2,0,0.3,0,0.3-0.1c0-0.1,0.1-0.2,0.1-0.4v-2.4c0-0.2,0-0.3,0-0.4
		c0,0-0.1-0.1-0.1-0.1c-0.1,0-0.2-0.1-0.3-0.1h-0.1v-0.1h1.6v0.1h-0.1c-0.2,0-0.3,0-0.3,0.1c0,0.1-0.1,0.2-0.1,0.4v2.4
		c0,0.2,0,0.3,0,0.4c0,0,0.1,0.1,0.1,0.1c0.1,0,0.2,0.1,0.3,0.1H101.5z"/>
	<path class="st1" d="M105.2,17.4l0.1,1.2h-0.1c-0.1-0.3-0.2-0.5-0.4-0.7c-0.2-0.2-0.5-0.3-0.9-0.3c-0.5,0-0.8,0.2-1.1,0.6
		c-0.2,0.3-0.3,0.7-0.3,1.1c0,0.4,0.1,0.7,0.2,1c0.1,0.3,0.3,0.5,0.5,0.6c0.2,0.1,0.5,0.2,0.7,0.2c0.1,0,0.3,0,0.4-0.1
		c0.1,0,0.3-0.1,0.4-0.2v-1.1c0-0.2,0-0.3,0-0.4c0-0.1-0.1-0.1-0.1-0.1c-0.1,0-0.2,0-0.3,0v-0.1h1.5v0.1h-0.1c-0.1,0-0.2,0-0.3,0.1
		c0,0.1-0.1,0.2-0.1,0.4V21c-0.2,0.1-0.4,0.2-0.6,0.3c-0.2,0.1-0.4,0.1-0.7,0.1c-0.7,0-1.3-0.2-1.7-0.7c-0.3-0.3-0.4-0.8-0.4-1.2
		c0-0.3,0.1-0.6,0.2-0.9c0.2-0.4,0.4-0.6,0.8-0.8c0.3-0.2,0.6-0.2,1-0.2c0.1,0,0.3,0,0.4,0c0.1,0,0.3,0.1,0.5,0.1
		c0.1,0,0.2,0.1,0.2,0.1c0,0,0.1,0,0.1,0c0,0,0-0.1,0-0.2H105.2z"/>
	<path class="st1" d="M105.7,17.5h1l2.3,2.8v-2.2c0-0.2,0-0.4-0.1-0.4c-0.1-0.1-0.2-0.1-0.3-0.1h-0.1v-0.1h1.3v0.1h-0.1
		c-0.2,0-0.3,0-0.3,0.1c0,0.1-0.1,0.2-0.1,0.4v3.2h-0.1l-2.5-3v2.3c0,0.2,0,0.4,0.1,0.4c0.1,0.1,0.2,0.1,0.3,0.1h0.1v0.1h-1.3v-0.1
		h0.1c0.2,0,0.3,0,0.3-0.1c0-0.1,0.1-0.2,0.1-0.4V18c-0.1-0.1-0.2-0.2-0.2-0.3c-0.1,0-0.1-0.1-0.2-0.1c-0.1,0-0.1,0-0.2,0V17.5z"/>
	<path class="st1" d="M111,17.7v1.5h0.8c0.2,0,0.4,0,0.4-0.1c0.1-0.1,0.1-0.2,0.2-0.4h0.1v1.3h-0.1c0-0.2-0.1-0.3-0.1-0.4
		c0-0.1-0.1-0.1-0.2-0.2c-0.1,0-0.2-0.1-0.3-0.1H111v1.2c0,0.2,0,0.3,0,0.3c0,0,0,0.1,0.1,0.1c0,0,0.1,0,0.2,0h0.6
		c0.2,0,0.4,0,0.5,0c0.1,0,0.2-0.1,0.3-0.2c0.1-0.1,0.2-0.3,0.4-0.5h0.1l-0.3,0.9H110v-0.1h0.1c0.1,0,0.2,0,0.3-0.1
		c0.1,0,0.1-0.1,0.1-0.1c0-0.1,0-0.2,0-0.4v-2.4c0-0.2,0-0.4-0.1-0.4c-0.1-0.1-0.2-0.1-0.3-0.1H110v-0.1h2.9l0,0.8h-0.1
		c0-0.2-0.1-0.3-0.1-0.4c0-0.1-0.1-0.1-0.2-0.2c-0.1,0-0.2,0-0.4,0H111z"/>
	<path class="st1" d="M115.6,21.2l-1.4-3.2v2.5c0,0.2,0,0.4,0.1,0.4c0.1,0.1,0.2,0.1,0.3,0.1h0.1v0.1h-1.3v-0.1h0.1
		c0.2,0,0.3,0,0.3-0.1c0-0.1,0.1-0.2,0.1-0.4v-2.5c0-0.2,0-0.3-0.1-0.4c0-0.1-0.1-0.1-0.1-0.1c-0.1,0-0.2-0.1-0.3-0.1v-0.1h1.1
		l1.4,2.9l1.3-2.9h1.1v0.1h-0.1c-0.2,0-0.3,0-0.3,0.1c0,0.1-0.1,0.2-0.1,0.4v2.5c0,0.2,0,0.4,0.1,0.4c0.1,0.1,0.2,0.1,0.3,0.1h0.1
		v0.1h-1.6v-0.1h0.1c0.2,0,0.3,0,0.3-0.1c0-0.1,0.1-0.2,0.1-0.4v-2.5L115.6,21.2L115.6,21.2z"/>
	<path class="st1" d="M119.5,17.7v1.5h0.8c0.2,0,0.4,0,0.4-0.1c0.1-0.1,0.1-0.2,0.2-0.4h0.1v1.3H121c0-0.2-0.1-0.3-0.1-0.4
		c0-0.1-0.1-0.1-0.2-0.2c-0.1,0-0.2-0.1-0.3-0.1h-0.8v1.2c0,0.2,0,0.3,0,0.3c0,0,0,0.1,0.1,0.1c0,0,0.1,0,0.2,0h0.6
		c0.2,0,0.4,0,0.5,0c0.1,0,0.2-0.1,0.3-0.2c0.1-0.1,0.2-0.3,0.4-0.5h0.1l-0.3,0.9h-2.9v-0.1h0.1c0.1,0,0.2,0,0.3-0.1
		c0.1,0,0.1-0.1,0.1-0.1c0-0.1,0-0.2,0-0.4v-2.4c0-0.2,0-0.4-0.1-0.4c-0.1-0.1-0.2-0.1-0.3-0.1h-0.1v-0.1h2.9l0,0.8h-0.1
		c0-0.2-0.1-0.3-0.1-0.4c0-0.1-0.1-0.1-0.2-0.2c-0.1,0-0.2,0-0.4,0H119.5z"/>
	<path class="st1" d="M121.7,17.5h1l2.3,2.8v-2.2c0-0.2,0-0.4-0.1-0.4c-0.1-0.1-0.2-0.1-0.3-0.1h-0.1v-0.1h1.3v0.1h-0.1
		c-0.2,0-0.3,0-0.3,0.1c0,0.1-0.1,0.2-0.1,0.4v3.2h-0.1l-2.5-3v2.3c0,0.2,0,0.4,0.1,0.4c0.1,0.1,0.2,0.1,0.3,0.1h0.1v0.1h-1.3v-0.1
		h0.1c0.2,0,0.3,0,0.3-0.1c0-0.1,0.1-0.2,0.1-0.4V18c-0.1-0.1-0.2-0.2-0.2-0.3c-0.1,0-0.1-0.1-0.2-0.1c-0.1,0-0.1,0-0.2,0V17.5z"/>
	<path class="st1" d="M129.2,17.5l0,0.9h-0.1c0-0.2,0-0.3-0.1-0.3c-0.1-0.1-0.1-0.2-0.2-0.2c-0.1-0.1-0.2-0.1-0.4-0.1h-0.5v2.9
		c0,0.2,0,0.4,0.1,0.4c0.1,0.1,0.2,0.1,0.3,0.1h0.1v0.1h-1.6v-0.1h0.1c0.2,0,0.3,0,0.3-0.1c0-0.1,0.1-0.2,0.1-0.4v-2.9h-0.5
		c-0.2,0-0.3,0-0.4,0c-0.1,0-0.2,0.1-0.2,0.2c-0.1,0.1-0.1,0.2-0.1,0.4h-0.1l0-0.9H129.2z"/>
	<path class="st1" d="M133.3,17.4v1.3h-0.1c0-0.2-0.1-0.4-0.2-0.6c-0.1-0.1-0.2-0.3-0.4-0.4c-0.2-0.1-0.3-0.1-0.5-0.1
		c-0.2,0-0.3,0.1-0.5,0.2c-0.1,0.1-0.2,0.2-0.2,0.4c0,0.1,0,0.2,0.1,0.3c0.1,0.1,0.4,0.3,0.8,0.6c0.3,0.2,0.6,0.3,0.7,0.4
		c0.1,0.1,0.2,0.2,0.3,0.4c0.1,0.1,0.1,0.3,0.1,0.4c0,0.3-0.1,0.5-0.3,0.7c-0.2,0.2-0.5,0.3-0.9,0.3c-0.1,0-0.2,0-0.3,0
		c-0.1,0-0.2,0-0.4-0.1c-0.2-0.1-0.3-0.1-0.3-0.1c0,0-0.1,0-0.1,0s0,0.1-0.1,0.2h-0.1V20h0.1c0,0.3,0.1,0.5,0.2,0.6
		c0.1,0.1,0.2,0.2,0.4,0.3c0.2,0.1,0.3,0.1,0.5,0.1c0.2,0,0.4-0.1,0.5-0.2c0.1-0.1,0.2-0.3,0.2-0.4c0-0.1,0-0.2-0.1-0.3
		c-0.1-0.1-0.1-0.2-0.2-0.3c-0.1-0.1-0.3-0.2-0.6-0.4c-0.3-0.2-0.5-0.3-0.7-0.4c-0.1-0.1-0.2-0.2-0.3-0.4c-0.1-0.1-0.1-0.3-0.1-0.4
		c0-0.3,0.1-0.5,0.3-0.7c0.2-0.2,0.5-0.3,0.8-0.3c0.2,0,0.4,0,0.6,0.1c0.1,0,0.2,0.1,0.2,0.1c0,0,0.1,0,0.1,0c0,0,0.1-0.1,0.1-0.2
		H133.3z"/>
	<path class="st1" d="M136.5,17.6v-0.1h1.3v0.1h-0.1c-0.1,0-0.3,0.1-0.3,0.2c0,0.1-0.1,0.2-0.1,0.4v1.5c0,0.4,0,0.7-0.1,0.9
		c-0.1,0.2-0.2,0.4-0.4,0.5c-0.2,0.1-0.5,0.2-0.9,0.2c-0.4,0-0.7-0.1-0.9-0.2c-0.2-0.1-0.4-0.3-0.4-0.6c-0.1-0.2-0.1-0.5-0.1-0.9
		v-1.5c0-0.2,0-0.4-0.1-0.5c-0.1-0.1-0.2-0.1-0.3-0.1h-0.1v-0.1h1.6v0.1h-0.1c-0.2,0-0.3,0-0.3,0.1c0,0.1-0.1,0.2-0.1,0.4v1.6
		c0,0.1,0,0.3,0,0.5c0,0.2,0.1,0.3,0.1,0.4c0.1,0.1,0.2,0.2,0.3,0.3c0.1,0.1,0.3,0.1,0.5,0.1c0.2,0,0.5-0.1,0.7-0.2
		c0.2-0.1,0.3-0.2,0.4-0.4c0.1-0.2,0.1-0.4,0.1-0.8v-1.5c0-0.2,0-0.4-0.1-0.4c-0.1-0.1-0.2-0.1-0.3-0.1H136.5z"/>
	<path class="st1" d="M139.1,19.5v1.1c0,0.2,0,0.4,0.1,0.4c0.1,0.1,0.2,0.1,0.3,0.1h0.1v0.1H138v-0.1h0.1c0.2,0,0.3-0.1,0.3-0.2
		c0-0.1,0.1-0.2,0.1-0.4v-2.4c0-0.2,0-0.4-0.1-0.4c-0.1-0.1-0.2-0.1-0.3-0.1H138v-0.1h1.4c0.3,0,0.6,0,0.8,0.1
		c0.2,0.1,0.4,0.2,0.5,0.3c0.1,0.2,0.2,0.4,0.2,0.6c0,0.3-0.1,0.6-0.3,0.7c-0.2,0.2-0.5,0.3-0.9,0.3c-0.1,0-0.2,0-0.3,0
		C139.3,19.5,139.2,19.5,139.1,19.5z M139.1,19.3c0.1,0,0.2,0,0.3,0c0.1,0,0.1,0,0.2,0c0.2,0,0.4-0.1,0.5-0.2
		c0.1-0.1,0.2-0.3,0.2-0.6c0-0.2,0-0.3-0.1-0.5c-0.1-0.1-0.2-0.2-0.3-0.3c-0.1-0.1-0.3-0.1-0.4-0.1c-0.1,0-0.2,0-0.4,0.1V19.3z"/>
	<path class="st1" d="M142.3,17.7v1.5h0.8c0.2,0,0.4,0,0.4-0.1c0.1-0.1,0.1-0.2,0.2-0.4h0.1v1.3h-0.1c0-0.2-0.1-0.3-0.1-0.4
		c0-0.1-0.1-0.1-0.2-0.2c-0.1,0-0.2-0.1-0.3-0.1h-0.8v1.2c0,0.2,0,0.3,0,0.3c0,0,0,0.1,0.1,0.1c0,0,0.1,0,0.2,0h0.6
		c0.2,0,0.4,0,0.5,0c0.1,0,0.2-0.1,0.3-0.2c0.1-0.1,0.2-0.3,0.4-0.5h0.1l-0.3,0.9h-2.9v-0.1h0.1c0.1,0,0.2,0,0.3-0.1
		c0.1,0,0.1-0.1,0.1-0.1c0-0.1,0-0.2,0-0.4v-2.4c0-0.2,0-0.4-0.1-0.4c-0.1-0.1-0.2-0.1-0.3-0.1h-0.1v-0.1h2.9l0,0.8H144
		c0-0.2-0.1-0.3-0.1-0.4c0-0.1-0.1-0.1-0.2-0.2c-0.1,0-0.2,0-0.4,0H142.3z M143.4,16.2l-0.8,1h-0.1l0.3-1H143.4z"/>
	<path class="st1" d="M148.4,21.2h-1l-1.3-1.8c-0.1,0-0.2,0-0.2,0c0,0,0,0-0.1,0c0,0-0.1,0-0.1,0v1.1c0,0.2,0,0.4,0.1,0.4
		c0.1,0.1,0.2,0.1,0.3,0.1h0.1v0.1h-1.6v-0.1h0.1c0.2,0,0.3-0.1,0.3-0.2c0-0.1,0.1-0.2,0.1-0.4v-2.4c0-0.2,0-0.4-0.1-0.4
		c-0.1-0.1-0.2-0.1-0.3-0.1h-0.1v-0.1h1.4c0.4,0,0.7,0,0.9,0.1c0.2,0.1,0.3,0.2,0.5,0.3c0.1,0.2,0.2,0.3,0.2,0.6
		c0,0.2-0.1,0.4-0.2,0.6c-0.2,0.2-0.4,0.3-0.7,0.4l0.8,1.1c0.2,0.2,0.3,0.4,0.5,0.5c0.1,0.1,0.3,0.1,0.5,0.2V21.2z M145.7,19.3
		C145.7,19.3,145.8,19.3,145.7,19.3c0.1,0,0.1,0,0.2,0c0.4,0,0.6-0.1,0.8-0.2c0.2-0.2,0.3-0.4,0.3-0.6c0-0.2-0.1-0.4-0.2-0.6
		c-0.1-0.1-0.3-0.2-0.6-0.2c-0.1,0-0.3,0-0.4,0.1V19.3z"/>
	<path class="st1" d="M150.1,21.1v0.1h-1.6v-0.1h0.1c0.2,0,0.3,0,0.3-0.1c0-0.1,0.1-0.2,0.1-0.4v-2.4c0-0.2,0-0.3,0-0.4
		c0,0-0.1-0.1-0.1-0.1c-0.1,0-0.2-0.1-0.3-0.1h-0.1v-0.1h1.6v0.1h-0.1c-0.2,0-0.3,0-0.3,0.1c0,0.1-0.1,0.2-0.1,0.4v2.4
		c0,0.2,0,0.3,0,0.4c0,0,0.1,0.1,0.1,0.1c0.1,0,0.2,0.1,0.3,0.1H150.1z"/>
	<path class="st1" d="M151.4,17.7v1.5h0.8c0.2,0,0.4,0,0.4-0.1c0.1-0.1,0.1-0.2,0.2-0.4h0.1v1.3h-0.1c0-0.2-0.1-0.3-0.1-0.4
		c0-0.1-0.1-0.1-0.2-0.2c-0.1,0-0.2-0.1-0.3-0.1h-0.8v1.2c0,0.2,0,0.3,0,0.3c0,0,0,0.1,0.1,0.1c0,0,0.1,0,0.2,0h0.6
		c0.2,0,0.4,0,0.5,0c0.1,0,0.2-0.1,0.3-0.2c0.1-0.1,0.2-0.3,0.4-0.5h0.1l-0.3,0.9h-2.9v-0.1h0.1c0.1,0,0.2,0,0.3-0.1
		c0.1,0,0.1-0.1,0.1-0.1c0-0.1,0-0.2,0-0.4v-2.4c0-0.2,0-0.4-0.1-0.4c-0.1-0.1-0.2-0.1-0.3-0.1h-0.1v-0.1h2.9l0,0.8h-0.1
		c0-0.2-0.1-0.3-0.1-0.4c0-0.1-0.1-0.1-0.2-0.2c-0.1,0-0.2,0-0.4,0H151.4z"/>
	<path class="st1" d="M156.4,17.6v-0.1h1.3v0.1h-0.1c-0.1,0-0.3,0.1-0.3,0.2c0,0.1-0.1,0.2-0.1,0.4v1.5c0,0.4,0,0.7-0.1,0.9
		c-0.1,0.2-0.2,0.4-0.4,0.5c-0.2,0.1-0.5,0.2-0.9,0.2c-0.4,0-0.7-0.1-0.9-0.2c-0.2-0.1-0.4-0.3-0.5-0.6c-0.1-0.2-0.1-0.5-0.1-0.9
		v-1.5c0-0.2,0-0.4-0.1-0.5c-0.1-0.1-0.2-0.1-0.3-0.1h-0.1v-0.1h1.6v0.1h-0.1c-0.2,0-0.3,0-0.3,0.1c0,0.1-0.1,0.2-0.1,0.4v1.6
		c0,0.1,0,0.3,0,0.5c0,0.2,0.1,0.3,0.1,0.4c0.1,0.1,0.2,0.2,0.3,0.3c0.1,0.1,0.3,0.1,0.5,0.1c0.2,0,0.5-0.1,0.7-0.2
		c0.2-0.1,0.3-0.2,0.4-0.4c0.1-0.2,0.1-0.4,0.1-0.8v-1.5c0-0.2,0-0.4-0.1-0.4c-0.1-0.1-0.2-0.1-0.3-0.1H156.4z"/>
	<path class="st1" d="M161.6,21.2h-1l-1.3-1.8c-0.1,0-0.2,0-0.2,0c0,0,0,0-0.1,0c0,0-0.1,0-0.1,0v1.1c0,0.2,0,0.4,0.1,0.4
		c0.1,0.1,0.2,0.1,0.3,0.1h0.1v0.1h-1.6v-0.1h0.1c0.2,0,0.3-0.1,0.3-0.2c0-0.1,0.1-0.2,0.1-0.4v-2.4c0-0.2,0-0.4-0.1-0.4
		c-0.1-0.1-0.2-0.1-0.3-0.1h-0.1v-0.1h1.4c0.4,0,0.7,0,0.9,0.1c0.2,0.1,0.3,0.2,0.5,0.3c0.1,0.2,0.2,0.3,0.2,0.6
		c0,0.2-0.1,0.4-0.2,0.6c-0.1,0.2-0.4,0.3-0.7,0.4l0.8,1.1c0.2,0.2,0.3,0.4,0.5,0.5c0.1,0.1,0.3,0.1,0.5,0.2V21.2z M158.9,19.3
		C158.9,19.3,159,19.3,158.9,19.3c0.1,0,0.1,0,0.2,0c0.4,0,0.6-0.1,0.8-0.2c0.2-0.2,0.3-0.4,0.3-0.6c0-0.2-0.1-0.4-0.2-0.6
		c-0.1-0.1-0.3-0.2-0.6-0.2c-0.1,0-0.3,0-0.4,0.1V19.3z"/>
	<path class="st1" d="M161.8,22.2V22c0.2-0.1,0.3-0.2,0.4-0.3c0.1-0.1,0.2-0.3,0.2-0.4c0,0,0-0.1,0-0.1c0,0,0,0,0,0
		c0,0-0.1,0-0.1,0.1c0,0-0.1,0-0.1,0c-0.1,0-0.2,0-0.2-0.1c-0.1-0.1-0.1-0.1-0.1-0.2c0-0.1,0-0.2,0.1-0.2c0.1-0.1,0.2-0.1,0.3-0.1
		c0.1,0,0.2,0.1,0.3,0.2c0.1,0.1,0.1,0.2,0.1,0.4c0,0.2-0.1,0.4-0.2,0.5C162.3,21.9,162.1,22.1,161.8,22.2z"/>
	<path class="st1" d="M92.5,28.5v-0.1h0.1c0.2,0,0.3-0.1,0.3-0.2c0-0.1,0.1-0.2,0.1-0.4v-2.4c0-0.2,0-0.4-0.1-0.4
		c-0.1-0.1-0.2-0.1-0.3-0.1h-0.1v-0.1h1.5c0.6,0,1,0.1,1.3,0.2c0.3,0.1,0.5,0.3,0.7,0.6c0.2,0.3,0.3,0.6,0.3,1c0,0.5-0.2,1-0.5,1.3
		c-0.4,0.4-0.9,0.6-1.6,0.6H92.5z M93.6,28.3c0.2,0.1,0.4,0.1,0.6,0.1c0.4,0,0.8-0.2,1.1-0.5c0.3-0.3,0.4-0.7,0.4-1.2
		c0-0.5-0.1-0.9-0.4-1.2C95,25.1,94.6,25,94.2,25c-0.2,0-0.4,0-0.6,0.1V28.3z"/>
	<path class="st1" d="M97.7,25v1.5h0.8c0.2,0,0.4,0,0.4-0.1c0.1-0.1,0.1-0.2,0.2-0.4h0.1v1.3h-0.1c0-0.2-0.1-0.3-0.1-0.4
		c0-0.1-0.1-0.1-0.2-0.2c-0.1,0-0.2-0.1-0.3-0.1h-0.8v1.2c0,0.2,0,0.3,0,0.3c0,0,0,0.1,0.1,0.1c0,0,0.1,0,0.2,0h0.6
		c0.2,0,0.4,0,0.5,0c0.1,0,0.2-0.1,0.3-0.2c0.1-0.1,0.2-0.3,0.4-0.5h0.1l-0.3,0.9h-2.9v-0.1h0.1c0.1,0,0.2,0,0.3-0.1
		c0.1,0,0.1-0.1,0.1-0.1c0-0.1,0-0.2,0-0.4v-2.4c0-0.2,0-0.4-0.1-0.4c-0.1-0.1-0.2-0.1-0.3-0.1h-0.1v-0.1h2.9l0,0.8h-0.1
		c0-0.2-0.1-0.3-0.1-0.4c0-0.1-0.1-0.1-0.2-0.2c-0.1,0-0.2,0-0.4,0H97.7z"/>
	<path class="st1" d="M104.7,27.5L104.7,27.5l-0.2,1h-2.9v-0.1h0.1c0.2,0,0.3-0.1,0.3-0.2c0-0.1,0.1-0.2,0.1-0.4v-2.4
		c0-0.2,0-0.4-0.1-0.4c-0.1-0.1-0.2-0.1-0.3-0.1h-0.1v-0.1h1.7v0.1c-0.2,0-0.3,0-0.4,0.1c-0.1,0-0.1,0.1-0.2,0.1c0,0.1,0,0.2,0,0.4
		v2.4c0,0.2,0,0.3,0,0.3c0,0,0.1,0.1,0.1,0.1c0,0,0.2,0,0.4,0h0.3c0.3,0,0.5,0,0.6-0.1c0.1,0,0.2-0.1,0.3-0.2
		C104.5,27.9,104.6,27.7,104.7,27.5z"/>
	<path class="st1" d="M107.5,27.3H106l-0.3,0.6c-0.1,0.1-0.1,0.3-0.1,0.3c0,0.1,0,0.1,0.1,0.1c0.1,0,0.2,0.1,0.4,0.1v0.1h-1.2v-0.1
		c0.2,0,0.3-0.1,0.3-0.1c0.1-0.1,0.2-0.3,0.3-0.5l1.3-3.1h0.1l1.3,3.1c0.1,0.3,0.2,0.4,0.3,0.5c0.1,0.1,0.2,0.1,0.4,0.1v0.1h-1.5
		v-0.1c0.1,0,0.3,0,0.3-0.1c0.1,0,0.1-0.1,0.1-0.2c0-0.1,0-0.2-0.1-0.4L107.5,27.3z M107.4,27.1l-0.6-1.5l-0.7,1.5H107.4z"/>
	<path class="st1" d="M113.9,28.5h-1l-1.3-1.8c-0.1,0-0.2,0-0.2,0c0,0,0,0-0.1,0c0,0-0.1,0-0.1,0v1.1c0,0.2,0,0.4,0.1,0.4
		c0.1,0.1,0.2,0.1,0.3,0.1h0.1v0.1h-1.6v-0.1h0.1c0.2,0,0.3-0.1,0.3-0.2c0-0.1,0.1-0.2,0.1-0.4v-2.4c0-0.2,0-0.4-0.1-0.4
		c-0.1-0.1-0.2-0.1-0.3-0.1h-0.1v-0.1h1.4c0.4,0,0.7,0,0.9,0.1c0.2,0.1,0.3,0.2,0.5,0.3c0.1,0.2,0.2,0.3,0.2,0.6
		c0,0.2-0.1,0.4-0.2,0.6c-0.1,0.2-0.4,0.3-0.7,0.4l0.8,1.1c0.2,0.2,0.3,0.4,0.5,0.5c0.1,0.1,0.3,0.1,0.5,0.2V28.5z M111.2,26.6
		C111.3,26.6,111.3,26.6,111.2,26.6c0.1,0,0.1,0,0.2,0c0.4,0,0.6-0.1,0.8-0.2c0.2-0.2,0.3-0.4,0.3-0.6c0-0.2-0.1-0.4-0.2-0.6
		c-0.1-0.1-0.3-0.2-0.6-0.2c-0.1,0-0.3,0-0.4,0.1V26.6z"/>
	<path class="st1" d="M115,25v1.5h0.8c0.2,0,0.4,0,0.4-0.1c0.1-0.1,0.1-0.2,0.2-0.4h0.1v1.3h-0.1c0-0.2-0.1-0.3-0.1-0.4
		c0-0.1-0.1-0.1-0.2-0.2s-0.2-0.1-0.3-0.1H115v1.2c0,0.2,0,0.3,0,0.3c0,0,0,0.1,0.1,0.1c0,0,0.1,0,0.2,0h0.6c0.2,0,0.4,0,0.5,0
		c0.1,0,0.2-0.1,0.3-0.2c0.1-0.1,0.2-0.3,0.4-0.5h0.1l-0.3,0.9H114v-0.1h0.1c0.1,0,0.2,0,0.3-0.1c0.1,0,0.1-0.1,0.1-0.1
		c0-0.1,0-0.2,0-0.4v-2.4c0-0.2,0-0.4-0.1-0.4c-0.1-0.1-0.2-0.1-0.3-0.1H114v-0.1h2.9l0,0.8h-0.1c0-0.2-0.1-0.3-0.1-0.4
		c0-0.1-0.1-0.1-0.2-0.2c-0.1,0-0.2,0-0.4,0H115z"/>
	<path class="st1" d="M120.7,24.7l0.1,1.3h-0.1c-0.1-0.4-0.3-0.7-0.5-0.8c-0.2-0.2-0.5-0.3-0.8-0.3c-0.2,0-0.5,0.1-0.7,0.2
		c-0.2,0.1-0.4,0.3-0.5,0.6c-0.1,0.3-0.2,0.6-0.2,1c0,0.3,0.1,0.6,0.2,0.9c0.1,0.2,0.3,0.4,0.5,0.6c0.2,0.1,0.5,0.2,0.7,0.2
		c0.2,0,0.5-0.1,0.6-0.2c0.2-0.1,0.4-0.3,0.6-0.6l0.1,0.1c-0.2,0.3-0.4,0.6-0.7,0.7c-0.3,0.2-0.5,0.2-0.9,0.2
		c-0.6,0-1.1-0.2-1.4-0.7c-0.3-0.3-0.4-0.7-0.4-1.2c0-0.4,0.1-0.7,0.3-1c0.2-0.3,0.4-0.6,0.7-0.7c0.3-0.2,0.6-0.3,1-0.3
		c0.3,0,0.5,0.1,0.8,0.2c0.1,0,0.1,0.1,0.2,0.1c0,0,0.1,0,0.1-0.1C120.6,24.8,120.6,24.8,120.7,24.7L120.7,24.7z"/>
	<path class="st1" d="M122.3,26.5h1.7v-1.1c0-0.2,0-0.3,0-0.4c0,0-0.1-0.1-0.1-0.1c-0.1,0-0.2-0.1-0.3-0.1h-0.1v-0.1h1.6v0.1h-0.1
		c-0.1,0-0.2,0-0.3,0.1c-0.1,0-0.1,0.1-0.1,0.1c0,0.1,0,0.2,0,0.4v2.4c0,0.2,0,0.3,0,0.4c0,0,0.1,0.1,0.1,0.1c0.1,0,0.2,0.1,0.3,0.1
		h0.1v0.1h-1.6v-0.1h0.1c0.2,0,0.3,0,0.3-0.1c0-0.1,0.1-0.2,0.1-0.4v-1.1h-1.7v1.1c0,0.2,0,0.3,0,0.4c0,0,0.1,0.1,0.1,0.1
		c0.1,0,0.2,0.1,0.3,0.1h0.1v0.1h-1.6v-0.1h0.1c0.2,0,0.3,0,0.3-0.1c0-0.1,0.1-0.2,0.1-0.4v-2.4c0-0.2,0-0.3,0-0.4
		c0,0-0.1-0.1-0.1-0.1c-0.1,0-0.2-0.1-0.3-0.1h-0.1v-0.1h1.6v0.1h-0.1c-0.1,0-0.2,0-0.3,0.1c-0.1,0-0.1,0.1-0.1,0.1
		c0,0.1,0,0.2,0,0.4V26.5z"/>
	<path class="st1" d="M126.4,25v1.5h0.8c0.2,0,0.4,0,0.4-0.1c0.1-0.1,0.1-0.2,0.2-0.4h0.1v1.3h-0.1c0-0.2-0.1-0.3-0.1-0.4
		c0-0.1-0.1-0.1-0.2-0.2c-0.1,0-0.2-0.1-0.3-0.1h-0.8v1.2c0,0.2,0,0.3,0,0.3c0,0,0,0.1,0.1,0.1c0,0,0.1,0,0.2,0h0.6
		c0.2,0,0.4,0,0.5,0c0.1,0,0.2-0.1,0.3-0.2c0.1-0.1,0.2-0.3,0.4-0.5h0.1l-0.3,0.9h-2.9v-0.1h0.1c0.1,0,0.2,0,0.3-0.1
		c0.1,0,0.1-0.1,0.1-0.1c0-0.1,0-0.2,0-0.4v-2.4c0-0.2,0-0.4-0.1-0.4c-0.1-0.1-0.2-0.1-0.3-0.1h-0.1v-0.1h2.9l0,0.8h-0.1
		c0-0.2-0.1-0.3-0.1-0.4c0-0.1-0.1-0.1-0.2-0.2c-0.1,0-0.2,0-0.4,0H126.4z"/>
	<path class="st1" d="M132.5,28.5h-1l-1.3-1.8c-0.1,0-0.2,0-0.2,0c0,0,0,0-0.1,0c0,0-0.1,0-0.1,0v1.1c0,0.2,0,0.4,0.1,0.4
		c0.1,0.1,0.2,0.1,0.3,0.1h0.1v0.1h-1.6v-0.1h0.1c0.2,0,0.3-0.1,0.3-0.2c0-0.1,0.1-0.2,0.1-0.4v-2.4c0-0.2,0-0.4-0.1-0.4
		c-0.1-0.1-0.2-0.1-0.3-0.1h-0.1v-0.1h1.4c0.4,0,0.7,0,0.9,0.1c0.2,0.1,0.3,0.2,0.5,0.3c0.1,0.2,0.2,0.3,0.2,0.6
		c0,0.2-0.1,0.4-0.2,0.6c-0.1,0.2-0.4,0.3-0.7,0.4l0.8,1.1c0.2,0.2,0.3,0.4,0.5,0.5c0.1,0.1,0.3,0.1,0.5,0.2V28.5z M129.8,26.6
		C129.8,26.6,129.9,26.6,129.8,26.6c0.1,0,0.1,0,0.2,0c0.4,0,0.6-0.1,0.8-0.2c0.2-0.2,0.3-0.4,0.3-0.6c0-0.2-0.1-0.4-0.2-0.6
		c-0.1-0.1-0.3-0.2-0.6-0.2c-0.1,0-0.3,0-0.4,0.1V26.6z"/>
	<path class="st1" d="M135.8,24.7l0.1,1.3h-0.1c-0.1-0.4-0.3-0.7-0.5-0.8c-0.2-0.2-0.5-0.3-0.8-0.3c-0.2,0-0.5,0.1-0.7,0.2
		c-0.2,0.1-0.4,0.3-0.5,0.6c-0.1,0.3-0.2,0.6-0.2,1c0,0.3,0.1,0.6,0.2,0.9c0.1,0.2,0.3,0.4,0.5,0.6c0.2,0.1,0.5,0.2,0.7,0.2
		c0.2,0,0.5-0.1,0.6-0.2c0.2-0.1,0.4-0.3,0.6-0.6l0.1,0.1c-0.2,0.3-0.4,0.6-0.7,0.7c-0.3,0.2-0.5,0.2-0.9,0.2
		c-0.6,0-1.1-0.2-1.4-0.7c-0.3-0.3-0.4-0.7-0.4-1.2c0-0.4,0.1-0.7,0.3-1c0.2-0.3,0.4-0.6,0.7-0.7c0.3-0.2,0.6-0.3,1-0.3
		c0.3,0,0.5,0.1,0.8,0.2c0.1,0,0.1,0.1,0.2,0.1c0,0,0.1,0,0.1-0.1C135.7,24.8,135.7,24.8,135.8,24.7L135.8,24.7z"/>
	<path class="st1" d="M137.4,26.5h1.7v-1.1c0-0.2,0-0.3,0-0.4c0,0-0.1-0.1-0.1-0.1c-0.1,0-0.2-0.1-0.3-0.1h-0.1v-0.1h1.6v0.1H140
		c-0.1,0-0.2,0-0.3,0.1c-0.1,0-0.1,0.1-0.1,0.1c0,0.1,0,0.2,0,0.4v2.4c0,0.2,0,0.3,0,0.4c0,0,0.1,0.1,0.1,0.1c0.1,0,0.2,0.1,0.3,0.1
		h0.1v0.1h-1.6v-0.1h0.1c0.2,0,0.3,0,0.3-0.1c0-0.1,0.1-0.2,0.1-0.4v-1.1h-1.7v1.1c0,0.2,0,0.3,0,0.4c0,0,0.1,0.1,0.1,0.1
		c0.1,0,0.2,0.1,0.3,0.1h0.1v0.1h-1.6v-0.1h0.1c0.2,0,0.3,0,0.3-0.1c0-0.1,0.1-0.2,0.1-0.4v-2.4c0-0.2,0-0.3,0-0.4
		c0,0-0.1-0.1-0.1-0.1c-0.1,0-0.2-0.1-0.3-0.1h-0.1v-0.1h1.6v0.1h-0.1c-0.1,0-0.2,0-0.3,0.1c-0.1,0-0.1,0.1-0.1,0.1
		c0,0.1,0,0.2,0,0.4V26.5z"/>
	<path class="st1" d="M141.5,25v1.5h0.8c0.2,0,0.4,0,0.4-0.1c0.1-0.1,0.1-0.2,0.2-0.4h0.1v1.3h-0.1c0-0.2-0.1-0.3-0.1-0.4
		c0-0.1-0.1-0.1-0.2-0.2c-0.1,0-0.2-0.1-0.3-0.1h-0.8v1.2c0,0.2,0,0.3,0,0.3c0,0,0,0.1,0.1,0.1c0,0,0.1,0,0.2,0h0.6
		c0.2,0,0.4,0,0.5,0c0.1,0,0.2-0.1,0.3-0.2c0.1-0.1,0.2-0.3,0.4-0.5h0.1l-0.3,0.9h-2.9v-0.1h0.1c0.1,0,0.2,0,0.3-0.1
		c0.1,0,0.1-0.1,0.1-0.1c0-0.1,0-0.2,0-0.4v-2.4c0-0.2,0-0.4-0.1-0.4c-0.1-0.1-0.2-0.1-0.3-0.1h-0.1v-0.1h2.9l0,0.8h-0.1
		c0-0.2-0.1-0.3-0.1-0.4c0-0.1-0.1-0.1-0.2-0.2c-0.1,0-0.2,0-0.4,0H141.5z"/>
	<path class="st1" d="M91,32.3v1.5h0.8c0.2,0,0.4,0,0.4-0.1c0.1-0.1,0.1-0.2,0.2-0.4h0.1v1.3h-0.1c0-0.2-0.1-0.3-0.1-0.4
		c0-0.1-0.1-0.1-0.2-0.2C92.1,34,92,34,91.8,34H91v1.2c0,0.2,0,0.3,0,0.3c0,0,0,0.1,0.1,0.1c0,0,0.1,0,0.2,0H92c0.2,0,0.4,0,0.5,0
		c0.1,0,0.2-0.1,0.3-0.2c0.1-0.1,0.2-0.3,0.4-0.5h0.1l-0.3,0.9h-2.9v-0.1h0.1c0.1,0,0.2,0,0.3-0.1c0.1,0,0.1-0.1,0.1-0.1
		c0-0.1,0-0.2,0-0.4v-2.4c0-0.2,0-0.4-0.1-0.4c-0.1-0.1-0.2-0.1-0.3-0.1h-0.1v-0.1h2.9l0,0.8h-0.1c0-0.2-0.1-0.3-0.1-0.4
		c0-0.1-0.1-0.1-0.2-0.2c-0.1,0-0.2,0-0.4,0H91z"/>
	<path class="st1" d="M96.6,32.1l0,0.9h-0.1c0-0.2,0-0.3-0.1-0.3c-0.1-0.1-0.1-0.2-0.2-0.2c-0.1-0.1-0.2-0.1-0.4-0.1h-0.5v2.9
		c0,0.2,0,0.4,0.1,0.4c0.1,0.1,0.2,0.1,0.3,0.1h0.1v0.1h-1.6v-0.1h0.1c0.2,0,0.3,0,0.3-0.1c0-0.1,0.1-0.2,0.1-0.4v-2.9h-0.5
		c-0.2,0-0.3,0-0.4,0c-0.1,0-0.2,0.1-0.2,0.2c-0.1,0.1-0.1,0.2-0.1,0.4h-0.1l0-0.9H96.6z"/>
	<path class="st1" d="M98.2,35.8v-0.1h0.1c0.2,0,0.3,0,0.3-0.2c0-0.1,0.1-0.2,0.1-0.4v-2.4c0-0.2,0-0.4-0.1-0.4
		c-0.1-0.1-0.2-0.1-0.3-0.1h-0.1v-0.1h1.5c0.6,0,1,0.1,1.3,0.2c0.3,0.1,0.5,0.3,0.7,0.6c0.2,0.3,0.3,0.6,0.3,1c0,0.5-0.2,1-0.5,1.3
		c-0.4,0.4-0.9,0.6-1.6,0.6H98.2z M99.2,35.6c0.2,0.1,0.4,0.1,0.6,0.1c0.4,0,0.8-0.2,1.1-0.5c0.3-0.3,0.4-0.7,0.4-1.2
		c0-0.5-0.1-0.9-0.4-1.2c-0.3-0.3-0.6-0.4-1.1-0.4c-0.2,0-0.4,0-0.6,0.1V35.6z"/>
	<path class="st1" d="M103.3,32.3v1.5h0.8c0.2,0,0.4,0,0.4-0.1c0.1-0.1,0.1-0.2,0.2-0.4h0.1v1.3h-0.1c0-0.2-0.1-0.3-0.1-0.4
		c0-0.1-0.1-0.1-0.2-0.2c-0.1,0-0.2-0.1-0.3-0.1h-0.8v1.2c0,0.2,0,0.3,0,0.3c0,0,0,0.1,0.1,0.1c0,0,0.1,0,0.2,0h0.6
		c0.2,0,0.4,0,0.5,0c0.1,0,0.2-0.1,0.3-0.2c0.1-0.1,0.2-0.3,0.4-0.5h0.1l-0.3,0.9h-2.9v-0.1h0.1c0.1,0,0.2,0,0.3-0.1
		c0.1,0,0.1-0.1,0.1-0.1c0-0.1,0-0.2,0-0.4v-2.4c0-0.2,0-0.4-0.1-0.4c-0.1-0.1-0.2-0.1-0.3-0.1h-0.1v-0.1h2.9l0,0.8h-0.1
		c0-0.2-0.1-0.3-0.1-0.4c0-0.1-0.1-0.1-0.2-0.2c-0.1,0-0.2,0-0.4,0H103.3z"/>
	<path class="st1" d="M110.3,34.8L110.3,34.8l-0.2,1h-2.9v-0.1h0.1c0.2,0,0.3-0.1,0.3-0.2c0-0.1,0.1-0.2,0.1-0.4v-2.4
		c0-0.2,0-0.4-0.1-0.4c-0.1-0.1-0.2-0.1-0.3-0.1h-0.1v-0.1h1.7v0.1c-0.2,0-0.3,0-0.4,0.1c-0.1,0-0.1,0.1-0.2,0.1s0,0.2,0,0.4v2.4
		c0,0.2,0,0.3,0,0.3c0,0,0.1,0.1,0.1,0.1c0,0,0.2,0,0.4,0h0.3c0.3,0,0.5,0,0.6-0.1c0.1,0,0.2-0.1,0.3-0.2
		C110.1,35.2,110.2,35,110.3,34.8z"/>
	<path class="st1" d="M110.6,33.4v-0.1c0.2-0.1,0.3-0.2,0.4-0.3c0-0.1,0.1-0.2,0.1-0.3c0-0.1,0-0.1,0-0.1c0,0,0,0-0.1,0
		c0,0,0,0-0.1,0c0,0-0.1,0-0.1,0c-0.1,0-0.1,0-0.2-0.1c-0.1-0.1-0.1-0.1-0.1-0.2c0-0.1,0-0.2,0.1-0.2c0.1-0.1,0.2-0.1,0.3-0.1
		c0.1,0,0.2,0.1,0.3,0.2c0.1,0.1,0.1,0.2,0.1,0.4c0,0.2-0.1,0.4-0.2,0.6C111,33.3,110.8,33.4,110.6,33.4z"/>
	<path class="st1" d="M113.6,35.7v0.1H112v-0.1h0.1c0.2,0,0.3,0,0.3-0.1c0-0.1,0.1-0.2,0.1-0.4v-2.4c0-0.2,0-0.3,0-0.4
		c0,0-0.1-0.1-0.1-0.1c-0.1,0-0.2-0.1-0.3-0.1H112v-0.1h1.6v0.1h-0.1c-0.2,0-0.3,0-0.3,0.1c0,0.1-0.1,0.2-0.1,0.4v2.4
		c0,0.2,0,0.3,0,0.4c0,0,0.1,0.1,0.1,0.1c0.1,0,0.2,0.1,0.3,0.1H113.6z"/>
	<path class="st1" d="M113.7,32.1h1l2.3,2.8v-2.2c0-0.2,0-0.4-0.1-0.4c-0.1-0.1-0.2-0.1-0.3-0.1h-0.1v-0.1h1.3v0.1h-0.1
		c-0.2,0-0.3,0-0.3,0.1c0,0.1-0.1,0.2-0.1,0.4v3.2h-0.1l-2.5-3v2.3c0,0.2,0,0.4,0.1,0.4c0.1,0.1,0.2,0.1,0.3,0.1h0.1v0.1h-1.3v-0.1
		h0.1c0.2,0,0.3,0,0.3-0.1c0-0.1,0.1-0.2,0.1-0.4v-2.6c-0.1-0.1-0.2-0.2-0.2-0.3c-0.1,0-0.1-0.1-0.2-0.1c-0.1,0-0.1,0-0.2,0V32.1z"
		/>
	<path class="st1" d="M117.8,32.1h1l2.3,2.8v-2.2c0-0.2,0-0.4-0.1-0.4c-0.1-0.1-0.2-0.1-0.3-0.1h-0.1v-0.1h1.3v0.1h-0.1
		c-0.2,0-0.3,0-0.3,0.1c0,0.1-0.1,0.2-0.1,0.4v3.2h-0.1l-2.5-3v2.3c0,0.2,0,0.4,0.1,0.4c0.1,0.1,0.2,0.1,0.3,0.1h0.1v0.1H118v-0.1
		h0.1c0.2,0,0.3,0,0.3-0.1c0-0.1,0.1-0.2,0.1-0.4v-2.6c-0.1-0.1-0.2-0.2-0.2-0.3c-0.1,0-0.1-0.1-0.2-0.1c-0.1,0-0.1,0-0.2,0V32.1z"
		/>
	<path class="st1" d="M124,32c0.5,0,0.9,0.2,1.3,0.6c0.4,0.4,0.5,0.8,0.5,1.4c0,0.6-0.2,1-0.5,1.4c-0.4,0.4-0.8,0.6-1.3,0.6
		c-0.5,0-1-0.2-1.3-0.6c-0.4-0.4-0.5-0.8-0.5-1.4c0-0.6,0.2-1.1,0.6-1.5C123.1,32.2,123.5,32,124,32z M123.9,32.2
		c-0.3,0-0.6,0.1-0.8,0.4c-0.3,0.3-0.4,0.8-0.4,1.4c0,0.6,0.1,1.1,0.4,1.4c0.2,0.3,0.5,0.4,0.8,0.4c0.4,0,0.6-0.1,0.9-0.4
		c0.2-0.3,0.3-0.7,0.3-1.3c0-0.6-0.1-1.1-0.4-1.4C124.6,32.3,124.3,32.2,123.9,32.2z"/>
	<path class="st1" d="M130,32.1v0.1c-0.1,0-0.2,0.1-0.3,0.1c-0.1,0.1-0.2,0.2-0.3,0.4l-1.3,3.2h-0.1l-1.4-3.2
		c-0.1-0.2-0.1-0.3-0.2-0.3c0-0.1-0.1-0.1-0.2-0.1c-0.1,0-0.2-0.1-0.3-0.1v-0.1h1.5v0.1c-0.2,0-0.3,0-0.3,0.1
		c-0.1,0-0.1,0.1-0.1,0.2c0,0.1,0,0.2,0.1,0.4l1,2.2l0.9-2.2c0.1-0.2,0.1-0.4,0.1-0.4c0-0.1,0-0.1-0.1-0.2c-0.1,0-0.1-0.1-0.3-0.1
		c0,0,0,0,0,0v-0.1H130z"/>
	<path class="st1" d="M132,34.6h-1.5l-0.3,0.6c-0.1,0.1-0.1,0.3-0.1,0.3c0,0.1,0,0.1,0.1,0.2c0.1,0,0.2,0.1,0.4,0.1v0.1h-1.2v-0.1
		c0.2,0,0.3-0.1,0.3-0.1c0.1-0.1,0.2-0.3,0.3-0.5l1.3-3.1h0.1l1.3,3.1c0.1,0.3,0.2,0.4,0.3,0.5c0.1,0.1,0.2,0.1,0.4,0.1v0.1h-1.5
		v-0.1c0.1,0,0.2,0,0.3-0.1c0.1,0,0.1-0.1,0.1-0.2c0-0.1,0-0.2-0.1-0.4L132,34.6z M131.9,34.4l-0.6-1.5l-0.7,1.5H131.9z"/>
	<path class="st1" d="M136.1,32.1l0,0.9h-0.1c0-0.2,0-0.3-0.1-0.3c-0.1-0.1-0.1-0.2-0.2-0.2c-0.1-0.1-0.2-0.1-0.4-0.1h-0.5v2.9
		c0,0.2,0,0.4,0.1,0.4c0.1,0.1,0.2,0.1,0.3,0.1h0.1v0.1h-1.6v-0.1h0.1c0.2,0,0.3,0,0.3-0.1c0-0.1,0.1-0.2,0.1-0.4v-2.9h-0.5
		c-0.2,0-0.3,0-0.4,0c-0.1,0-0.2,0.1-0.2,0.2c-0.1,0.1-0.1,0.2-0.1,0.4H133l0-0.9H136.1z"/>
	<path class="st1" d="M138,35.7v0.1h-1.6v-0.1h0.1c0.2,0,0.3,0,0.3-0.1c0-0.1,0.1-0.2,0.1-0.4v-2.4c0-0.2,0-0.3,0-0.4
		c0,0-0.1-0.1-0.1-0.1c-0.1,0-0.2-0.1-0.3-0.1h-0.1v-0.1h1.6v0.1h-0.1c-0.2,0-0.3,0-0.3,0.1c0,0.1-0.1,0.2-0.1,0.4v2.4
		c0,0.2,0,0.3,0,0.4c0,0,0.1,0.1,0.1,0.1c0.1,0,0.2,0.1,0.3,0.1H138z"/>
	<path class="st1" d="M140.3,32c0.5,0,0.9,0.2,1.3,0.6c0.4,0.4,0.5,0.8,0.5,1.4c0,0.6-0.2,1-0.5,1.4c-0.4,0.4-0.8,0.6-1.3,0.6
		c-0.5,0-0.9-0.2-1.3-0.6c-0.4-0.4-0.5-0.8-0.5-1.4c0-0.6,0.2-1.1,0.6-1.5C139.3,32.2,139.8,32,140.3,32z M140.2,32.2
		c-0.3,0-0.6,0.1-0.8,0.4c-0.3,0.3-0.4,0.8-0.4,1.4c0,0.6,0.1,1.1,0.4,1.4c0.2,0.3,0.5,0.4,0.8,0.4c0.4,0,0.6-0.1,0.9-0.4
		c0.2-0.3,0.3-0.7,0.3-1.3c0-0.6-0.1-1.1-0.4-1.4C140.8,32.3,140.6,32.2,140.2,32.2z"/>
	<path class="st1" d="M142.2,32.1h1l2.3,2.8v-2.2c0-0.2,0-0.4-0.1-0.4c-0.1-0.1-0.2-0.1-0.3-0.1H145v-0.1h1.3v0.1h-0.1
		c-0.2,0-0.3,0-0.3,0.1c0,0.1-0.1,0.2-0.1,0.4v3.2h-0.1l-2.5-3v2.3c0,0.2,0,0.4,0.1,0.4c0.1,0.1,0.2,0.1,0.3,0.1h0.1v0.1h-1.3v-0.1
		h0.1c0.2,0,0.3,0,0.3-0.1c0-0.1,0.1-0.2,0.1-0.4v-2.6c-0.1-0.1-0.2-0.2-0.2-0.3c-0.1,0-0.1-0.1-0.2-0.1c-0.1,0-0.1,0-0.2,0V32.1z"
		/>
</g>
</svg>
