<?xml version="1.0" encoding="utf-8"?>
<!-- Generator: Adobe Illustrator 21.1.0, SVG Export Plug-In . SVG Version: 6.00 Build 0)  -->
<svg version="1.1" id="Calque_1" xmlns="http://www.w3.org/2000/svg" xmlns:xlink="http://www.w3.org/1999/xlink" x="0px" y="0px"
	 viewBox="0 0 400 200" style="enable-background:new 0 0 400 200;" xml:space="preserve">
<style type="text/css">
	.st0{fill:#0599C4;}
</style>
<title>Plan de travail 1</title>
<path class="st0" d="M6.4,121.4H1v-11.2h7.3l1.3-7.6H3.3V91.4h8.3l1.5-8.9h10l-1.6,8.9h8.7l1.5-8.9h10l-1.6,8.9h5.4v11.2h-7.3
	l-1.3,7.6h6.3v11.2h-8.2l-1.6,9.3h-10l1.6-9.3h-8.7l-1.6,9.3h-10L6.4,121.4z M27.2,110.5l1.4-8.2h-9.2l-1.5,8.2H27.2z"/>
<path class="st0" d="M75.8,131.4c-2.2,0-4.3-0.4-6.3-1.2c-2-0.8-3.9-2.1-5.4-3.7c-1.6-1.7-2.9-3.8-3.8-6c-1-2.6-1.5-5.4-1.4-8.2
	v-0.1c-0.1-2.8,0.4-5.6,1.4-8.2c0.8-2.2,2.1-4.2,3.7-6c1.5-1.6,3.3-2.9,5.3-3.7c2-0.8,4.2-1.2,6.3-1.2c2.4-0.1,4.8,0.5,6.9,1.6
	c1.7,1,3.3,2.3,4.6,3.9V80.4h10.5v50.3H87.3v-5.3c-1.3,1.7-2.8,3.2-4.7,4.3C80.6,130.9,78.2,131.5,75.8,131.4z M78.5,122.5
	c1.2,0,2.4-0.2,3.5-0.7c1.1-0.5,2-1.2,2.8-2.1c0.8-1,1.5-2.1,1.9-3.2c0.5-1.3,0.7-2.7,0.7-4.2v-0.1c0-1.4-0.2-2.8-0.7-4.2
	c-0.4-1.2-1.1-2.3-1.9-3.2c-0.8-0.9-1.7-1.6-2.8-2.1c-2.2-1-4.7-1-7,0c-1.1,0.5-2.1,1.2-2.9,2.1c-0.9,0.9-1.5,2-2,3.2
	c-0.5,1.3-0.7,2.8-0.7,4.2v0.1c0,1.4,0.2,2.8,0.7,4.2c0.4,1.2,1.1,2.3,2,3.2c0.8,0.9,1.8,1.6,2.9,2.1
	C76.1,122.3,77.3,122.5,78.5,122.5L78.5,122.5z"/>
<path class="st0" d="M125.9,131.4c-1.7,0-3.3-0.2-4.9-0.7c-1.5-0.4-2.9-1.2-4.1-2.2c-1.2-1-2.1-2.2-2.7-3.6c-0.7-1.5-1-3.2-1-4.9
	v-0.1c0-1.8,0.3-3.6,1.1-5.2c0.7-1.4,1.8-2.7,3.1-3.6c1.4-1,3-1.8,4.7-2.2c2-0.5,4-0.7,6-0.7c1.7,0,3.3,0.1,4.9,0.4
	c1.4,0.3,2.8,0.6,4.1,1.1v-0.6c0.1-1.9-0.6-3.7-2-5c-1.3-1.1-3.3-1.7-5.9-1.7c-1.8,0-3.6,0.2-5.3,0.5c-1.7,0.4-3.3,0.9-4.9,1.5
	l-2.6-8c2.1-0.9,4.2-1.6,6.3-2.1c2.6-0.6,5.3-0.9,8-0.8c2.5-0.1,5,0.3,7.4,1.1c1.9,0.6,3.6,1.7,5.1,3.1c1.4,1.4,2.4,3.2,3,5.1
	c0.7,2.2,1,4.4,1,6.7v21.4H137v-4c-1.3,1.4-2.9,2.6-4.6,3.4C130.4,131,128.1,131.5,125.9,131.4z M129,124.1c2.1,0.1,4.2-0.5,6-1.8
	c1.5-1.1,2.3-2.9,2.2-4.7v-1.9c-1-0.4-2-0.8-3-1c-1.2-0.3-2.4-0.4-3.6-0.4c-1.9-0.1-3.7,0.3-5.3,1.3c-1.3,0.8-2,2.3-1.9,3.8v0.1
	c-0.1,1.3,0.6,2.6,1.6,3.3C126.2,123.8,127.6,124.2,129,124.1z"/>
<path class="st0" d="M176.9,131.3c-1.5,0-2.9-0.2-4.4-0.5c-1.3-0.3-2.4-0.9-3.4-1.8c-1-0.9-1.7-2.1-2.2-3.4
	c-0.6-1.7-0.9-3.5-0.8-5.3v-17.5h-4.4v-8.9h4.4v-9.5h10.5v9.4h8.7v8.9h-8.7v15.8c0,2.4,1.1,3.6,3.4,3.6c1.8,0,3.6-0.5,5.2-1.4v8.4
	c-1.2,0.7-2.4,1.2-3.7,1.5C180.1,131.1,178.5,131.3,176.9,131.3z"/>
<path class="st0" d="M211.8,131.4c-1.7,0-3.3-0.2-4.9-0.7c-1.5-0.4-2.9-1.2-4.1-2.2c-1.2-1-2.1-2.2-2.7-3.6c-0.7-1.5-1-3.2-1-4.9
	v-0.1c0-1.8,0.3-3.6,1.1-5.2c0.7-1.4,1.8-2.7,3.1-3.6c1.4-1,3-1.8,4.7-2.2c2-0.5,4-0.7,6-0.7c1.7,0,3.3,0.1,4.9,0.4
	c1.4,0.3,2.8,0.6,4.1,1.1v-0.6c0.1-1.9-0.6-3.7-2-5c-1.3-1.1-3.3-1.7-5.9-1.7c-1.8,0-3.6,0.2-5.3,0.5c-1.7,0.4-3.3,0.9-4.9,1.5
	l-2.6-8c2.1-0.9,4.2-1.6,6.3-2.1c2.6-0.6,5.3-0.9,8-0.8c2.5-0.1,5,0.3,7.4,1.1c1.9,0.6,3.6,1.7,5.1,3.1c1.4,1.4,2.4,3.2,3,5.1
	c0.7,2.2,1,4.4,1,6.7v21.4H223v-4c-1.3,1.4-2.9,2.6-4.6,3.4C216.3,131,214.1,131.5,211.8,131.4z M215,124.1c2.1,0.1,4.2-0.5,6-1.8
	c1.5-1.1,2.3-2.9,2.2-4.7v-1.9c-1-0.4-2-0.8-3-1c-1.2-0.3-2.4-0.4-3.6-0.4c-1.9-0.1-3.7,0.3-5.3,1.3c-1.3,0.8-2,2.3-1.9,3.8v0.1
	c-0.1,1.3,0.6,2.6,1.6,3.3C212.1,123.8,213.5,124.2,215,124.1z"/>
<path class="st0" d="M252.9,82.5h34.3v3.2h-30.7v19.1h27.6v3.2h-27.6v19.5h31.1v3.2h-34.7V82.5z"/>
<path class="st0" d="M323.7,131.4c-3.6,0.1-7.1-0.6-10.4-1.9c-3.3-1.4-6.3-3.4-9-5.8l2.3-2.7c1.2,1.2,2.6,2.3,4,3.2
	c2.5,1.7,5.4,2.9,8.4,3.5c1.6,0.3,3.3,0.5,5,0.4c1.7,0,3.4-0.2,5-0.7c1.4-0.4,2.7-1.1,3.9-2c1-0.8,1.9-1.9,2.5-3
	c0.6-1.2,0.9-2.5,0.9-3.8v-0.1c0-1.2-0.2-2.3-0.6-3.4c-0.5-1.1-1.2-2-2.1-2.8c-1.3-1-2.7-1.7-4.2-2.2c-2.2-0.8-4.5-1.4-6.8-1.8
	c-2.5-0.5-5-1.2-7.4-2.2c-1.8-0.7-3.5-1.6-5.1-2.8c-1.3-1-2.2-2.3-2.9-3.7c-0.6-1.5-0.9-3.2-0.9-4.9v-0.1c0-1.7,0.4-3.4,1.2-5
	c0.8-1.6,1.9-2.9,3.2-4.1c1.4-1.2,3.1-2.1,4.9-2.7c2-0.7,4.1-1,6.2-1c3.1-0.1,6.2,0.4,9.1,1.5c2.7,1.1,5.2,2.5,7.5,4.4l-2.3,2.8
	c-3.9-3.6-9.1-5.6-14.4-5.5c-1.6,0-3.3,0.2-4.9,0.7c-1.3,0.4-2.6,1.1-3.7,2c-1,0.8-1.8,1.8-2.3,2.9c-0.5,1.1-0.8,2.3-0.8,3.5v0.1
	c0,1.2,0.2,2.4,0.6,3.5c0.5,1.1,1.2,2.1,2.1,2.8c1.3,1,2.8,1.8,4.3,2.3c2.3,0.8,4.6,1.5,7,1.9c5.6,1.2,9.7,2.8,12.2,4.9
	c2.5,2.1,3.9,5.2,3.7,8.4v0.1c0,1.9-0.4,3.7-1.2,5.3c-0.8,1.6-1.9,3-3.3,4.2c-1.5,1.2-3.2,2.1-5,2.7
	C328,131.1,325.9,131.4,323.7,131.4z"/>
<path class="st0" d="M359.7,82.5H380c2.7,0,5.4,0.4,7.9,1.3c2.1,0.7,4.1,1.9,5.7,3.5c1.2,1.2,2.1,2.5,2.7,4.1c0.6,1.6,1,3.2,1,4.9
	v0.1c0,1.9-0.3,3.7-1.1,5.4c-0.7,1.6-1.7,3-3,4.1c-1.3,1.2-2.8,2.1-4.5,2.8c-1.8,0.7-3.7,1.2-5.6,1.5l15.9,20.6h-4.5l-15.4-20h-15.8
	v20h-3.6L359.7,82.5z M379.5,107.5c1.9,0,3.8-0.2,5.6-0.8c1.6-0.4,3.1-1.2,4.4-2.2c1.2-0.9,2.2-2.1,2.9-3.5c0.7-1.4,1.1-3.1,1.1-4.7
	v-0.2c0.1-3-1.2-5.9-3.6-7.7c-2.5-1.9-5.9-2.8-10.3-2.8h-16.5v21.8H379.5z"/>
</svg>
